<svg width="390" height="388" viewBox="0 0 390 388" fill="none" xmlns="http://www.w3.org/2000/svg">
<path d="M0 30C0 13.4314 13.4315 0 30 0H360C376.569 0 390 13.4315 390 30V388H0V30Z" fill="#A8ECFF"/>
<circle cx="210" cy="297" r="15" fill="#0F434F"/>
<path d="M179.463 108V102.048C179.463 101.323 179.303 100.816 178.983 100.528C178.674 100.24 178.263 100.096 177.751 100.096H173.991V99.12H178.023C178.557 99.12 179.021 99.216 179.415 99.408C179.821 99.6 180.135 99.9147 180.359 100.352C180.594 100.789 180.711 101.371 180.711 102.096V108H179.463ZM173.975 108V103.68L174.151 102.608H175.223V103.68V108H173.975ZM182.574 108V107.024H185.198C185.582 107.024 185.939 106.976 186.27 106.88C186.6 106.773 186.888 106.608 187.134 106.384C187.379 106.149 187.571 105.84 187.71 105.456C187.859 105.072 187.934 104.597 187.934 104.032V103.056C187.934 102.416 187.848 101.877 187.678 101.44C187.518 100.992 187.267 100.656 186.926 100.432C186.595 100.208 186.179 100.096 185.678 100.096H183.998L183.582 101.872C183.454 102.48 183.464 102.949 183.614 103.28C183.774 103.6 184.158 103.824 184.766 103.952L184.51 104.8C183.88 104.736 183.395 104.576 183.054 104.32C182.723 104.064 182.515 103.723 182.43 103.296C182.344 102.869 182.355 102.363 182.462 101.776L183.086 99.12H185.886C186.568 99.12 187.15 99.2693 187.63 99.568C188.12 99.8667 188.499 100.309 188.766 100.896C189.032 101.483 189.166 102.213 189.166 103.088V103.984C189.166 104.72 189.064 105.344 188.862 105.856C188.67 106.368 188.398 106.784 188.046 107.104C187.704 107.413 187.304 107.643 186.846 107.792C186.398 107.931 185.918 108 185.406 108H182.574ZM193.254 108L193.126 107.024C193.489 106.981 193.83 106.907 194.15 106.8C194.481 106.683 194.774 106.501 195.03 106.256C195.286 106 195.494 105.648 195.654 105.2C195.825 104.741 195.937 104.16 195.99 103.456L196.262 100.096H190.502V99.12H197.574L197.526 100L197.27 103.216C197.227 104.005 197.099 104.699 196.886 105.296C196.683 105.883 196.406 106.373 196.054 106.768C195.713 107.163 195.302 107.461 194.822 107.664C194.353 107.867 193.83 107.979 193.254 108ZM190.534 111.2V103.456L190.71 102.368H191.766V103.44V111.2H190.534ZM200.539 108L203.627 100.096H198.651V99.12H204.859V100.16L201.771 108H200.539ZM198.651 100.096V96.528H199.803V100.096H198.651ZM209.224 104.64V103.376V100.992L209 99.12H210.232L210.456 100.992V103.376L210.44 104.384L209.224 104.64ZM217.578 108V102.048C217.578 101.323 217.418 100.816 217.098 100.528C216.789 100.24 216.378 100.096 215.866 100.096H212.106V99.12H216.138C216.671 99.12 217.135 99.216 217.53 99.408C217.935 99.6 218.25 99.9147 218.474 100.352C218.709 100.789 218.826 101.371 218.826 102.096V108H217.578ZM212.09 108V103.68L212.266 102.608H213.338V103.68V108H212.09ZM221.376 108.16L220.256 99.12H221.44L222.4 107.072C223.232 107.019 223.963 106.869 224.592 106.624C225.232 106.379 225.766 106.027 226.192 105.568C226.619 105.109 226.939 104.539 227.152 103.856C227.366 103.173 227.467 102.373 227.456 101.456L227.44 99.12H228.672L228.688 101.408C228.699 102.923 228.432 104.176 227.888 105.168C227.355 106.16 226.544 106.907 225.456 107.408C224.368 107.899 223.008 108.149 221.376 108.16ZM221.872 104.704L221.584 103.84C222.16 103.573 222.614 103.291 222.944 102.992C223.275 102.693 223.515 102.315 223.664 101.856C223.814 101.397 223.894 100.811 223.904 100.096L223.92 99.152H225.104L225.088 100.08C225.078 100.88 224.966 101.568 224.752 102.144C224.539 102.72 224.198 103.211 223.728 103.616C223.27 104.021 222.651 104.384 221.872 104.704ZM230.39 104.64V103.376V100.992L230.166 99.12H231.398L231.622 100.992V103.376L231.606 104.384L230.39 104.64ZM236.185 108.032L236.312 107.056C237.198 107.248 237.913 107.227 238.457 106.992C239.001 106.757 239.395 106.325 239.641 105.696C239.897 105.067 240.014 104.256 239.993 103.264C239.982 102.443 239.87 101.797 239.657 101.328C239.454 100.859 239.182 100.528 238.841 100.336C238.51 100.133 238.131 100.032 237.705 100.032C237.267 100.032 236.899 100.128 236.601 100.32C236.313 100.501 236.083 100.741 235.913 101.04C235.742 101.339 235.619 101.664 235.545 102.016L235.177 101.344C235.369 100.533 235.715 99.9467 236.217 99.584C236.729 99.2107 237.283 99.024 237.881 99.024C238.339 99.024 238.761 99.0987 239.145 99.248C239.539 99.3867 239.886 99.6213 240.185 99.952C240.483 100.283 240.718 100.72 240.889 101.264C241.07 101.808 241.166 102.475 241.177 103.264C241.209 104.491 241.033 105.499 240.649 106.288C240.265 107.077 239.694 107.627 238.937 107.936C238.19 108.235 237.273 108.267 236.185 108.032ZM233.225 108L234.409 101.776L233.177 99.12H234.457L235.593 101.824L234.457 108H233.225ZM127.251 130V122.24H128.211L128.307 123.392H128.355C128.696 123.019 129.07 122.704 129.475 122.448C129.891 122.181 130.323 122.048 130.771 122.048C131.379 122.048 131.848 122.187 132.179 122.464C132.52 122.731 132.766 123.093 132.915 123.552C133.331 123.104 133.747 122.741 134.163 122.464C134.59 122.187 135.032 122.048 135.491 122.048C136.291 122.048 136.883 122.304 137.267 122.816C137.651 123.328 137.843 124.08 137.843 125.072V130H136.675V125.216C136.675 124.469 136.552 123.925 136.307 123.584C136.062 123.243 135.678 123.072 135.155 123.072C134.846 123.072 134.52 123.179 134.179 123.392C133.848 123.595 133.496 123.904 133.123 124.32V130H131.955V125.216C131.955 124.469 131.832 123.925 131.587 123.584C131.352 123.243 130.974 123.072 130.451 123.072C129.832 123.072 129.15 123.488 128.403 124.32V130H127.251ZM140.046 130V122.24H141.198V130H140.046ZM140.638 120.576C140.414 120.576 140.222 120.501 140.062 120.352C139.913 120.203 139.838 120.005 139.838 119.76C139.838 119.525 139.913 119.339 140.062 119.2C140.222 119.051 140.414 118.976 140.638 118.976C140.873 118.976 141.065 119.051 141.214 119.2C141.363 119.339 141.438 119.525 141.438 119.76C141.438 120.005 141.363 120.203 141.214 120.352C141.065 120.501 140.873 120.576 140.638 120.576ZM145.497 130.192C144.942 130.192 144.414 130.091 143.913 129.888C143.412 129.675 142.98 129.419 142.617 129.12L143.209 128.336C143.55 128.603 143.902 128.827 144.265 129.008C144.628 129.189 145.054 129.28 145.545 129.28C146.078 129.28 146.478 129.152 146.745 128.896C147.012 128.64 147.145 128.336 147.145 127.984C147.145 127.707 147.054 127.477 146.873 127.296C146.692 127.104 146.462 126.944 146.185 126.816C145.908 126.677 145.625 126.555 145.337 126.448C144.974 126.32 144.612 126.165 144.249 125.984C143.886 125.803 143.582 125.573 143.337 125.296C143.102 125.019 142.985 124.661 142.985 124.224C142.985 123.616 143.214 123.104 143.673 122.688C144.142 122.261 144.793 122.048 145.625 122.048C146.094 122.048 146.532 122.133 146.937 122.304C147.342 122.475 147.689 122.677 147.977 122.912L147.417 123.664C147.15 123.472 146.873 123.312 146.585 123.184C146.308 123.045 145.988 122.976 145.625 122.976C145.113 122.976 144.734 123.099 144.489 123.344C144.244 123.579 144.121 123.851 144.121 124.16C144.121 124.416 144.201 124.629 144.361 124.8C144.532 124.96 144.75 125.099 145.017 125.216C145.284 125.333 145.566 125.451 145.865 125.568C146.249 125.707 146.622 125.867 146.985 126.048C147.358 126.219 147.668 126.448 147.913 126.736C148.158 127.024 148.281 127.419 148.281 127.92C148.281 128.325 148.174 128.704 147.961 129.056C147.748 129.397 147.433 129.675 147.017 129.888C146.601 130.091 146.094 130.192 145.497 130.192ZM149.761 130V118.576H150.913V121.744L150.881 123.376C151.255 123.003 151.649 122.688 152.065 122.432C152.481 122.176 152.951 122.048 153.473 122.048C154.295 122.048 154.892 122.304 155.265 122.816C155.649 123.328 155.841 124.08 155.841 125.072V130H154.673V125.216C154.673 124.469 154.551 123.925 154.305 123.584C154.071 123.243 153.681 123.072 153.137 123.072C152.732 123.072 152.364 123.179 152.033 123.392C151.703 123.595 151.329 123.904 150.913 124.32V130H149.761ZM161.066 130.192C160.394 130.192 159.775 130.032 159.21 129.712C158.655 129.381 158.213 128.917 157.882 128.32C157.551 127.712 157.386 126.981 157.386 126.128C157.386 125.285 157.551 124.56 157.882 123.952C158.213 123.344 158.639 122.875 159.162 122.544C159.695 122.213 160.261 122.048 160.858 122.048C161.498 122.048 162.047 122.197 162.506 122.496C162.965 122.795 163.311 123.216 163.546 123.76C163.791 124.293 163.914 124.933 163.914 125.68C163.914 125.808 163.909 125.936 163.898 126.064C163.898 126.181 163.887 126.288 163.866 126.384H158.298L158.282 125.536H162.874C162.874 124.704 162.698 124.075 162.346 123.648C161.994 123.211 161.503 122.992 160.874 122.992C160.49 122.992 160.117 123.104 159.754 123.328C159.391 123.552 159.093 123.893 158.858 124.352C158.623 124.811 158.506 125.403 158.506 126.128C158.506 126.821 158.629 127.397 158.874 127.856C159.119 128.315 159.445 128.661 159.85 128.896C160.266 129.131 160.719 129.248 161.21 129.248C161.605 129.248 161.957 129.189 162.266 129.072C162.586 128.955 162.89 128.805 163.178 128.624L163.61 129.392C163.279 129.605 162.906 129.792 162.49 129.952C162.085 130.112 161.61 130.192 161.066 130.192ZM165.461 130V118.576H166.613V121.744L166.581 123.376C166.954 123.003 167.349 122.688 167.765 122.432C168.181 122.176 168.65 122.048 169.173 122.048C169.994 122.048 170.592 122.304 170.965 122.816C171.349 123.328 171.541 124.08 171.541 125.072V130H170.373V125.216C170.373 124.469 170.25 123.925 170.005 123.584C169.77 123.243 169.381 123.072 168.837 123.072C168.432 123.072 168.064 123.179 167.733 123.392C167.402 123.595 167.029 123.904 166.613 124.32V130H165.461ZM173.694 130V122.24H174.846V130H173.694ZM174.286 120.576C174.062 120.576 173.87 120.501 173.71 120.352C173.56 120.203 173.486 120.005 173.486 119.76C173.486 119.525 173.56 119.339 173.71 119.2C173.87 119.051 174.062 118.976 174.286 118.976C174.52 118.976 174.712 119.051 174.862 119.2C175.011 119.339 175.086 119.525 175.086 119.76C175.086 120.005 175.011 120.203 174.862 120.352C174.712 120.501 174.52 120.576 174.286 120.576ZM178.425 130.192C178.137 130.192 177.897 130.128 177.705 130C177.513 129.883 177.374 129.707 177.289 129.472C177.203 129.227 177.161 128.928 177.161 128.576V118.576H178.313V128.672C178.313 128.864 178.35 129.003 178.425 129.088C178.499 129.173 178.585 129.216 178.681 129.216C178.713 129.216 178.75 129.216 178.793 129.216C178.835 129.205 178.894 129.195 178.969 129.184L179.129 130.08C179.043 130.101 178.942 130.123 178.825 130.144C178.718 130.176 178.585 130.192 178.425 130.192ZM183.825 130.192C183.153 130.192 182.534 130.032 181.969 129.712C181.414 129.381 180.971 128.917 180.641 128.32C180.31 127.712 180.145 126.981 180.145 126.128C180.145 125.285 180.31 124.56 180.641 123.952C180.971 123.344 181.398 122.875 181.921 122.544C182.454 122.213 183.019 122.048 183.617 122.048C184.257 122.048 184.806 122.197 185.265 122.496C185.723 122.795 186.07 123.216 186.305 123.76C186.55 124.293 186.673 124.933 186.673 125.68C186.673 125.808 186.667 125.936 186.657 126.064C186.657 126.181 186.646 126.288 186.625 126.384H181.057L181.041 125.536H185.633C185.633 124.704 185.457 124.075 185.105 123.648C184.753 123.211 184.262 122.992 183.633 122.992C183.249 122.992 182.875 123.104 182.513 123.328C182.15 123.552 181.851 123.893 181.617 124.352C181.382 124.811 181.265 125.403 181.265 126.128C181.265 126.821 181.387 127.397 181.633 127.856C181.878 128.315 182.203 128.661 182.609 128.896C183.025 129.131 183.478 129.248 183.969 129.248C184.363 129.248 184.715 129.189 185.025 129.072C185.345 128.955 185.649 128.805 185.937 128.624L186.369 129.392C186.038 129.605 185.665 129.792 185.249 129.952C184.843 130.112 184.369 130.192 183.825 130.192ZM188.219 130V118.576H189.355V126.48H189.403L192.843 122.24H194.139L191.547 125.344L194.491 130H193.227L190.875 126.16L189.355 127.952V130H188.219ZM197.212 130.192C196.785 130.192 196.401 130.107 196.06 129.936C195.719 129.765 195.447 129.52 195.244 129.2C195.041 128.869 194.94 128.469 194.94 128C194.94 127.157 195.324 126.512 196.092 126.064C196.871 125.605 198.097 125.285 199.772 125.104C199.772 124.752 199.724 124.416 199.628 124.096C199.543 123.776 199.377 123.52 199.132 123.328C198.897 123.125 198.556 123.024 198.108 123.024C197.639 123.024 197.201 123.115 196.796 123.296C196.401 123.477 196.055 123.669 195.756 123.872L195.292 123.072C195.516 122.923 195.783 122.768 196.092 122.608C196.401 122.448 196.743 122.315 197.116 122.208C197.489 122.101 197.884 122.048 198.3 122.048C198.929 122.048 199.436 122.181 199.82 122.448C200.204 122.715 200.481 123.083 200.652 123.552C200.833 124.021 200.924 124.571 200.924 125.2V130H199.964L199.868 129.056H199.82C199.447 129.365 199.041 129.632 198.604 129.856C198.167 130.08 197.703 130.192 197.212 130.192ZM197.516 129.248C197.921 129.248 198.295 129.157 198.636 128.976C198.988 128.784 199.367 128.512 199.772 128.16V125.888C198.855 125.995 198.129 126.144 197.596 126.336C197.063 126.517 196.679 126.741 196.444 127.008C196.209 127.275 196.092 127.584 196.092 127.936C196.092 128.395 196.231 128.731 196.508 128.944C196.796 129.147 197.132 129.248 197.516 129.248ZM203.236 130V120.896C203.236 120.373 203.316 119.925 203.476 119.552C203.636 119.179 203.876 118.891 204.196 118.688C204.526 118.485 204.937 118.384 205.428 118.384C205.652 118.384 205.87 118.411 206.084 118.464C206.308 118.507 206.505 118.565 206.676 118.64L206.42 119.536C206.27 119.461 206.121 119.413 205.972 119.392C205.822 119.36 205.673 119.344 205.524 119.344C205.15 119.344 204.868 119.477 204.676 119.744C204.494 120.011 204.404 120.4 204.404 120.912V130H203.236ZM202.18 123.2V122.32L203.284 122.24H206.084V123.2H202.18ZM210.114 130.192C209.442 130.192 208.824 130.032 208.258 129.712C207.704 129.381 207.261 128.917 206.93 128.32C206.6 127.712 206.434 126.981 206.434 126.128C206.434 125.285 206.6 124.56 206.93 123.952C207.261 123.344 207.688 122.875 208.21 122.544C208.744 122.213 209.309 122.048 209.906 122.048C210.546 122.048 211.096 122.197 211.554 122.496C212.013 122.795 212.36 123.216 212.594 123.76C212.84 124.293 212.962 124.933 212.962 125.68C212.962 125.808 212.957 125.936 212.946 126.064C212.946 126.181 212.936 126.288 212.914 126.384H207.346L207.33 125.536H211.922C211.922 124.704 211.746 124.075 211.394 123.648C211.042 123.211 210.552 122.992 209.922 122.992C209.538 122.992 209.165 123.104 208.802 123.328C208.44 123.552 208.141 123.893 207.906 124.352C207.672 124.811 207.554 125.403 207.554 126.128C207.554 126.821 207.677 127.397 207.922 127.856C208.168 128.315 208.493 128.661 208.898 128.896C209.314 129.131 209.768 129.248 210.258 129.248C210.653 129.248 211.005 129.189 211.314 129.072C211.634 128.955 211.938 128.805 212.226 128.624L212.658 129.392C212.328 129.605 211.954 129.792 211.538 129.952C211.133 130.112 210.658 130.192 210.114 130.192ZM215.085 130.192C214.851 130.192 214.643 130.107 214.461 129.936C214.291 129.765 214.205 129.541 214.205 129.264C214.205 128.976 214.291 128.747 214.461 128.576C214.643 128.405 214.851 128.32 215.085 128.32C215.331 128.32 215.539 128.405 215.709 128.576C215.88 128.747 215.965 128.976 215.965 129.264C215.965 129.541 215.88 129.765 215.709 129.936C215.539 130.107 215.331 130.192 215.085 130.192ZM220.813 130.192C220.13 130.192 219.517 130.032 218.973 129.712C218.429 129.392 217.997 128.933 217.677 128.336C217.357 127.728 217.197 126.992 217.197 126.128C217.197 125.264 217.367 124.528 217.709 123.92C218.061 123.312 218.514 122.848 219.069 122.528C219.623 122.208 220.231 122.048 220.893 122.048C221.405 122.048 221.842 122.144 222.205 122.336C222.567 122.517 222.882 122.731 223.149 122.976L222.541 123.744C222.317 123.531 222.071 123.36 221.805 123.232C221.549 123.093 221.261 123.024 220.941 123.024C220.45 123.024 220.013 123.157 219.629 123.424C219.255 123.68 218.957 124.043 218.733 124.512C218.519 124.981 218.413 125.52 218.413 126.128C218.413 126.747 218.514 127.291 218.717 127.76C218.93 128.219 219.223 128.576 219.597 128.832C219.97 129.088 220.407 129.216 220.909 129.216C221.282 129.216 221.629 129.136 221.949 128.976C222.269 128.816 222.551 128.629 222.797 128.416L223.309 129.2C222.967 129.509 222.583 129.755 222.157 129.936C221.73 130.107 221.282 130.192 220.813 130.192ZM227.31 130.192C226.68 130.192 226.094 130.032 225.55 129.712C225.006 129.392 224.568 128.933 224.238 128.336C223.907 127.728 223.742 126.992 223.742 126.128C223.742 125.264 223.907 124.528 224.238 123.92C224.568 123.312 225.006 122.848 225.55 122.528C226.094 122.208 226.68 122.048 227.31 122.048C227.939 122.048 228.52 122.208 229.054 122.528C229.598 122.848 230.035 123.312 230.366 123.92C230.707 124.528 230.878 125.264 230.878 126.128C230.878 126.992 230.707 127.728 230.366 128.336C230.035 128.933 229.598 129.392 229.054 129.712C228.52 130.032 227.939 130.192 227.31 130.192ZM227.31 129.216C227.779 129.216 228.19 129.088 228.542 128.832C228.904 128.576 229.182 128.219 229.374 127.76C229.576 127.291 229.678 126.747 229.678 126.128C229.678 125.52 229.576 124.981 229.374 124.512C229.182 124.043 228.904 123.68 228.542 123.424C228.19 123.157 227.779 123.024 227.31 123.024C226.851 123.024 226.44 123.157 226.078 123.424C225.726 123.68 225.448 124.043 225.246 124.512C225.054 124.981 224.958 125.52 224.958 126.128C224.958 126.747 225.054 127.291 225.246 127.76C225.448 128.219 225.726 128.576 226.078 128.832C226.44 129.088 226.851 129.216 227.31 129.216ZM233.002 130.192C232.767 130.192 232.559 130.107 232.378 129.936C232.207 129.765 232.122 129.541 232.122 129.264C232.122 128.976 232.207 128.747 232.378 128.576C232.559 128.405 232.767 128.32 233.002 128.32C233.247 128.32 233.455 128.405 233.626 128.576C233.797 128.747 233.882 128.976 233.882 129.264C233.882 129.541 233.797 129.765 233.626 129.936C233.455 130.107 233.247 130.192 233.002 130.192ZM235.893 130V122.24H237.045V130H235.893ZM236.485 120.576C236.261 120.576 236.069 120.501 235.909 120.352C235.76 120.203 235.685 120.005 235.685 119.76C235.685 119.525 235.76 119.339 235.909 119.2C236.069 119.051 236.261 118.976 236.485 118.976C236.72 118.976 236.912 119.051 237.061 119.2C237.21 119.339 237.285 119.525 237.285 119.76C237.285 120.005 237.21 120.203 237.061 120.352C236.912 120.501 236.72 120.576 236.485 120.576ZM240.624 130.192C240.336 130.192 240.096 130.128 239.904 130C239.712 129.883 239.573 129.707 239.488 129.472C239.403 129.227 239.36 128.928 239.36 128.576V118.576H240.512V128.672C240.512 128.864 240.549 129.003 240.624 129.088C240.699 129.173 240.784 129.216 240.88 129.216C240.912 129.216 240.949 129.216 240.992 129.216C241.035 129.205 241.093 129.195 241.168 129.184L241.328 130.08C241.243 130.101 241.141 130.123 241.024 130.144C240.917 130.176 240.784 130.192 240.624 130.192Z" fill="#0F434F"/>
<path d="M273.281 186L276.369 178.096H271.393V177.12H277.601V178.16L274.513 186H273.281ZM271.393 178.096V174.528H272.545V178.096H271.393ZM278.514 186.464L278.338 185.472L281.186 184.928C281.815 184.811 282.327 184.635 282.722 184.4C283.127 184.165 283.437 183.856 283.65 183.472C283.874 183.088 284.034 182.608 284.13 182.032C284.237 181.456 284.301 180.763 284.322 179.952C284.343 179.141 284.354 178.197 284.354 177.12H285.57C285.57 178.272 285.549 179.291 285.506 180.176C285.463 181.061 285.367 181.835 285.218 182.496C285.069 183.147 284.834 183.696 284.514 184.144C284.205 184.592 283.778 184.965 283.234 185.264C282.701 185.552 282.023 185.776 281.202 185.936L278.514 186.464ZM281.202 185.024L279.106 177.12H280.338L282.402 185.024H281.202ZM290.057 182.64V181.376V178.992L289.833 177.12H291.065L291.289 178.992V181.376L291.273 182.384L290.057 182.64ZM293.883 186.16L292.763 177.12H293.947L294.907 185.072C295.739 185.019 296.47 184.869 297.099 184.624C297.739 184.379 298.273 184.027 298.699 183.568C299.126 183.109 299.446 182.539 299.659 181.856C299.873 181.173 299.974 180.373 299.963 179.456L299.947 177.12H301.179L301.195 179.408C301.206 180.923 300.939 182.176 300.395 183.168C299.862 184.16 299.051 184.907 297.963 185.408C296.875 185.899 295.515 186.149 293.883 186.16ZM294.379 182.704L294.091 181.84C294.667 181.573 295.121 181.291 295.451 180.992C295.782 180.693 296.022 180.315 296.171 179.856C296.321 179.397 296.401 178.811 296.411 178.096L296.427 177.152H297.611L297.595 178.08C297.585 178.88 297.473 179.568 297.259 180.144C297.046 180.72 296.705 181.211 296.235 181.616C295.777 182.021 295.158 182.384 294.379 182.704ZM302.897 182.64V181.376V178.992L302.673 177.12H303.905L304.129 178.992V181.376L304.113 182.384L302.897 182.64ZM308.468 186L308.34 185.024C308.702 184.981 309.044 184.907 309.364 184.8C309.694 184.683 309.988 184.501 310.244 184.256C310.5 184 310.708 183.648 310.868 183.2C311.038 182.741 311.15 182.16 311.204 181.456L311.476 178.096H305.715V177.12H312.788L312.74 178L312.484 181.216C312.441 182.005 312.313 182.699 312.1 183.296C311.897 183.883 311.62 184.373 311.268 184.768C310.926 185.163 310.516 185.461 310.036 185.664C309.566 185.867 309.044 185.979 308.468 186ZM305.748 189.2V181.456L305.924 180.368H306.98V181.44V189.2H305.748ZM319.625 186V180.048C319.625 179.323 319.465 178.816 319.145 178.528C318.835 178.24 318.425 178.096 317.913 178.096H314.153V177.12H318.185C318.718 177.12 319.182 177.216 319.577 177.408C319.982 177.6 320.297 177.915 320.521 178.352C320.755 178.789 320.873 179.371 320.873 180.096V186H319.625ZM314.137 186V181.68L314.313 180.608H315.385V181.68V186H314.137ZM326.25 186.192C326.016 186.192 325.808 186.107 325.626 185.936C325.456 185.765 325.37 185.541 325.37 185.264C325.37 184.976 325.456 184.747 325.626 184.576C325.808 184.405 326.016 184.32 326.25 184.32C326.496 184.32 326.704 184.405 326.874 184.576C327.045 184.747 327.13 184.976 327.13 185.264C327.13 185.541 327.045 185.765 326.874 185.936C326.704 186.107 326.496 186.192 326.25 186.192ZM328.565 186V185.024H330.917V177.264H329.061V176.512C329.52 176.437 329.92 176.341 330.261 176.224C330.603 176.096 330.912 175.952 331.189 175.792H332.085V185.024H334.213V186H328.565Z" fill="#0F434F"/>
<path d="M236.866 303L239.954 295.096H234.978V294.12H241.186V295.16L238.098 303H236.866ZM234.978 295.096V291.528H236.13V295.096H234.978ZM245.379 303.032L245.507 302.056C246.392 302.248 247.107 302.227 247.651 301.992C248.195 301.757 248.59 301.325 248.835 300.696C249.091 300.067 249.208 299.256 249.187 298.264C249.176 297.443 249.064 296.797 248.851 296.328C248.648 295.859 248.376 295.528 248.035 295.336C247.704 295.133 247.326 295.032 246.899 295.032C246.462 295.032 246.094 295.128 245.795 295.32C245.507 295.501 245.278 295.741 245.107 296.04C244.936 296.339 244.814 296.664 244.739 297.016L244.371 296.344C244.563 295.533 244.91 294.947 245.411 294.584C245.923 294.211 246.478 294.024 247.075 294.024C247.534 294.024 247.955 294.099 248.339 294.248C248.734 294.387 249.08 294.621 249.379 294.952C249.678 295.283 249.912 295.72 250.083 296.264C250.264 296.808 250.36 297.475 250.371 298.264C250.403 299.491 250.227 300.499 249.843 301.288C249.459 302.077 248.888 302.627 248.131 302.936C247.384 303.235 246.467 303.267 245.379 303.032ZM242.419 303L243.603 296.776L242.371 294.12H243.651L244.787 296.824L243.651 303H242.419ZM252.659 303.16L251.683 295.096L252.835 294.472L253.747 302.024C254.184 301.981 254.605 301.912 255.011 301.816C255.427 301.709 255.805 301.56 256.147 301.368C256.488 301.165 256.787 300.909 257.043 300.6C257.299 300.291 257.491 299.912 257.619 299.464C257.747 299.005 257.795 298.461 257.763 297.832V297.448C257.763 297 257.688 296.6 257.539 296.248C257.4 295.896 257.187 295.619 256.899 295.416C256.611 295.203 256.259 295.096 255.843 295.096H251.683L251.571 294.12H255.939C256.899 294.12 257.635 294.419 258.147 295.016C258.669 295.613 258.947 296.397 258.979 297.368L258.995 297.864C259.027 298.835 258.883 299.656 258.563 300.328C258.253 300.989 257.805 301.523 257.219 301.928C256.632 302.323 255.944 302.616 255.155 302.808C254.376 303 253.544 303.117 252.659 303.16ZM265.858 303V297.048C265.858 296.323 265.698 295.816 265.378 295.528C265.068 295.24 264.658 295.096 264.146 295.096H260.386V294.12H264.418C264.951 294.12 265.415 294.216 265.81 294.408C266.215 294.6 266.53 294.915 266.754 295.352C266.988 295.789 267.106 296.371 267.106 297.096V303H265.858ZM260.37 303V298.68L260.546 297.608H261.618V298.68V303H260.37ZM271.027 303.224L270.899 302.344C271.336 302.301 271.672 302.205 271.907 302.056C272.152 301.896 272.323 301.683 272.419 301.416C272.515 301.149 272.563 300.819 272.563 300.424V294.12H276.483C277.016 294.12 277.48 294.216 277.875 294.408C278.28 294.6 278.595 294.915 278.819 295.352C279.054 295.789 279.171 296.371 279.171 297.096V303H277.939V297.048C277.939 296.323 277.779 295.816 277.459 295.528C277.15 295.24 276.734 295.096 276.211 295.096H273.795V300.296C273.795 300.925 273.699 301.448 273.507 301.864C273.315 302.269 273.016 302.584 272.611 302.808C272.206 303.021 271.678 303.16 271.027 303.224ZM288.227 303H286.883L283.251 297.544L281.539 303H280.339L282.099 297.496L282.531 296.44L281.059 294.12H282.323L283.747 296.36L285.251 298.584L285.619 297.256L286.579 294.12H287.779L285.971 299.672L288.227 303ZM292.415 299.64V298.376V295.992L292.191 294.12H293.423L293.647 295.992V298.376L293.631 299.384L292.415 299.64ZM296.241 303.16L295.121 294.12H296.305L297.265 302.072C298.097 302.019 298.828 301.869 299.457 301.624C300.097 301.379 300.63 301.027 301.057 300.568C301.484 300.109 301.804 299.539 302.017 298.856C302.23 298.173 302.332 297.373 302.321 296.456L302.305 294.12H303.537L303.553 296.408C303.564 297.923 303.297 299.176 302.753 300.168C302.22 301.16 301.409 301.907 300.321 302.408C299.233 302.899 297.873 303.149 296.241 303.16ZM296.737 299.704L296.449 298.84C297.025 298.573 297.478 298.291 297.809 297.992C298.14 297.693 298.38 297.315 298.529 296.856C298.678 296.397 298.758 295.811 298.769 295.096L298.785 294.152H299.969L299.953 295.08C299.942 295.88 299.83 296.568 299.617 297.144C299.404 297.72 299.062 298.211 298.593 298.616C298.134 299.021 297.516 299.384 296.737 299.704ZM305.223 303V302.024H307.847C308.231 302.024 308.588 301.976 308.919 301.88C309.25 301.773 309.538 301.608 309.783 301.384C310.028 301.149 310.22 300.84 310.359 300.456C310.508 300.072 310.583 299.597 310.583 299.032V298.056C310.583 297.416 310.498 296.877 310.327 296.44C310.167 295.992 309.916 295.656 309.575 295.432C309.244 295.208 308.828 295.096 308.327 295.096H306.647L306.231 296.872C306.103 297.48 306.114 297.949 306.263 298.28C306.423 298.6 306.807 298.824 307.415 298.952L307.159 299.8C306.53 299.736 306.044 299.576 305.703 299.32C305.372 299.064 305.164 298.723 305.079 298.296C304.994 297.869 305.004 297.363 305.111 296.776L305.735 294.12H308.535C309.218 294.12 309.799 294.269 310.279 294.568C310.77 294.867 311.148 295.309 311.415 295.896C311.682 296.483 311.815 297.213 311.815 298.088V298.984C311.815 299.72 311.714 300.344 311.511 300.856C311.319 301.368 311.047 301.784 310.695 302.104C310.354 302.413 309.954 302.643 309.495 302.792C309.047 302.931 308.567 303 308.055 303H305.223ZM318.943 303V297.272C318.943 295.821 318.367 295.096 317.215 295.096H313.263V294.12H317.487C318.053 294.12 318.533 294.237 318.927 294.472C319.333 294.696 319.642 295.048 319.855 295.528C320.069 295.997 320.175 296.595 320.175 297.32V303H318.943ZM313.263 303V294.536H314.495V303H313.263ZM325.594 303.192C325.359 303.192 325.151 303.107 324.97 302.936C324.799 302.765 324.714 302.541 324.714 302.264C324.714 301.976 324.799 301.747 324.97 301.576C325.151 301.405 325.359 301.32 325.594 301.32C325.839 301.32 326.047 301.405 326.218 301.576C326.389 301.747 326.474 301.976 326.474 302.264C326.474 302.541 326.389 302.765 326.218 302.936C326.047 303.107 325.839 303.192 325.594 303.192ZM332.005 303V296.024C332.005 295.757 332.016 295.437 332.037 295.064C332.058 294.691 332.074 294.371 332.085 294.104H332.021C331.893 294.339 331.76 294.568 331.621 294.792C331.482 295.016 331.338 295.256 331.189 295.512L328.645 299.192H334.533V300.12H327.397V299.368L331.861 292.792H333.109V303H332.005Z" fill="#0F434F"/>
<path d="M129.833 225.224L129.705 224.344C130.142 224.301 130.478 224.205 130.713 224.056C130.958 223.896 131.129 223.683 131.225 223.416C131.321 223.149 131.369 222.819 131.369 222.424V216.12H135.289C135.822 216.12 136.286 216.216 136.681 216.408C137.086 216.6 137.401 216.915 137.625 217.352C137.86 217.789 137.977 218.371 137.977 219.096V225H136.745V219.048C136.745 218.323 136.585 217.816 136.265 217.528C135.956 217.24 135.54 217.096 135.017 217.096H132.601V222.296C132.601 222.925 132.505 223.448 132.313 223.864C132.121 224.269 131.822 224.584 131.417 224.808C131.012 225.021 130.484 225.16 129.833 225.224ZM139.88 221.64V220.376V217.992L139.656 216.12H140.888L141.112 217.992V220.376L141.096 221.384L139.88 221.64ZM147.227 225V219.048C147.227 218.323 147.067 217.816 146.747 217.528C146.437 217.24 146.021 217.096 145.498 217.096H142.618V216.12H145.77C146.304 216.12 146.773 216.216 147.179 216.408C147.584 216.6 147.898 216.915 148.122 217.352C148.346 217.789 148.458 218.371 148.458 219.096V225H147.227ZM142.618 225V224.024H149.595V225H142.618ZM156.248 225V219.048C156.248 218.323 156.088 217.816 155.768 217.528C155.459 217.24 155.048 217.096 154.536 217.096H150.776V216.12H154.808C155.342 216.12 155.806 216.216 156.2 216.408C156.606 216.6 156.92 216.915 157.144 217.352C157.379 217.789 157.496 218.371 157.496 219.096V225H156.248ZM150.76 225V220.68L150.936 219.608H152.008V220.68V225H150.76ZM166.634 228.2V219.048C166.634 218.323 166.474 217.816 166.154 217.528C165.845 217.24 165.429 217.096 164.906 217.096H161.802V216.12H165.194C165.727 216.12 166.191 216.216 166.586 216.408C166.991 216.6 167.306 216.915 167.53 217.352C167.765 217.789 167.882 218.371 167.882 219.096V228.2H166.634ZM170.449 225.16L169.473 217.096L170.625 216.472L171.537 224.024C171.974 223.981 172.395 223.912 172.801 223.816C173.217 223.709 173.595 223.56 173.937 223.368C174.278 223.165 174.577 222.909 174.833 222.6C175.089 222.291 175.281 221.912 175.409 221.464C175.537 221.005 175.585 220.461 175.553 219.832V219.448C175.553 219 175.478 218.6 175.329 218.248C175.19 217.896 174.977 217.619 174.689 217.416C174.401 217.203 174.049 217.096 173.633 217.096H169.473L169.361 216.12H173.729C174.689 216.12 175.425 216.419 175.937 217.016C176.459 217.613 176.737 218.397 176.769 219.368L176.785 219.864C176.817 220.835 176.673 221.656 176.353 222.328C176.043 222.989 175.595 223.523 175.009 223.928C174.422 224.323 173.734 224.616 172.945 224.808C172.166 225 171.334 225.117 170.449 225.16ZM181.088 225.032L181.216 224.056C182.101 224.248 182.816 224.227 183.36 223.992C183.904 223.757 184.298 223.325 184.544 222.696C184.8 222.067 184.917 221.256 184.896 220.264C184.885 219.443 184.773 218.797 184.56 218.328C184.357 217.859 184.085 217.528 183.744 217.336C183.413 217.133 183.034 217.032 182.608 217.032C182.17 217.032 181.802 217.128 181.504 217.32C181.216 217.501 180.986 217.741 180.816 218.04C180.645 218.339 180.522 218.664 180.448 219.016L180.08 218.344C180.272 217.533 180.618 216.947 181.12 216.584C181.632 216.211 182.186 216.024 182.784 216.024C183.242 216.024 183.664 216.099 184.048 216.248C184.442 216.387 184.789 216.621 185.088 216.952C185.386 217.283 185.621 217.72 185.792 218.264C185.973 218.808 186.069 219.475 186.08 220.264C186.112 221.491 185.936 222.499 185.552 223.288C185.168 224.077 184.597 224.627 183.84 224.936C183.093 225.235 182.176 225.267 181.088 225.032ZM178.128 225L179.312 218.776L178.08 216.12H179.36L180.496 218.824L179.36 225H178.128ZM189.055 225L192.143 217.096H187.167V216.12H193.375V217.16L190.287 225H189.055ZM187.167 217.096V213.528H188.319V217.096H187.167ZM202.924 225V219.048C202.924 218.323 202.764 217.816 202.444 217.528C202.134 217.24 201.724 217.096 201.212 217.096H197.452V216.12H201.484C202.017 216.12 202.481 216.216 202.876 216.408C203.281 216.6 203.596 216.915 203.82 217.352C204.054 217.789 204.172 218.371 204.172 219.096V225H202.924ZM197.436 225V220.68L197.612 219.608H198.684V220.68V225H197.436ZM206.034 225V224.024H208.658C209.042 224.024 209.399 223.976 209.73 223.88C210.061 223.773 210.349 223.608 210.594 223.384C210.839 223.149 211.031 222.84 211.17 222.456C211.319 222.072 211.394 221.597 211.394 221.032V220.056C211.394 219.416 211.309 218.877 211.138 218.44C210.978 217.992 210.727 217.656 210.386 217.432C210.055 217.208 209.639 217.096 209.138 217.096H207.458L207.042 218.872C206.914 219.48 206.925 219.949 207.074 220.28C207.234 220.6 207.618 220.824 208.226 220.952L207.97 221.8C207.341 221.736 206.855 221.576 206.514 221.32C206.183 221.064 205.975 220.723 205.89 220.296C205.805 219.869 205.815 219.363 205.922 218.776L206.546 216.12H209.346C210.029 216.12 210.61 216.269 211.09 216.568C211.581 216.867 211.959 217.309 212.226 217.896C212.493 218.483 212.626 219.213 212.626 220.088V220.984C212.626 221.72 212.525 222.344 212.322 222.856C212.13 223.368 211.858 223.784 211.506 224.104C211.165 224.413 210.765 224.643 210.306 224.792C209.858 224.931 209.378 225 208.866 225H206.034ZM214.938 225.16L213.962 217.096L215.114 216.472L216.026 224.024C216.464 223.981 216.885 223.912 217.29 223.816C217.706 223.709 218.085 223.56 218.426 223.368C218.768 223.165 219.066 222.909 219.322 222.6C219.578 222.291 219.77 221.912 219.898 221.464C220.026 221.005 220.074 220.461 220.042 219.832V219.448C220.042 219 219.968 218.6 219.818 218.248C219.68 217.896 219.466 217.619 219.178 217.416C218.89 217.203 218.538 217.096 218.122 217.096H213.962L213.85 216.12H218.218C219.178 216.12 219.914 216.419 220.426 217.016C220.949 217.613 221.226 218.397 221.258 219.368L221.274 219.864C221.306 220.835 221.162 221.656 220.842 222.328C220.533 222.989 220.085 223.523 219.498 223.928C218.912 224.323 218.224 224.616 217.434 224.808C216.656 225 215.824 225.117 214.938 225.16ZM222.953 225V217.992L222.729 216.12H223.961L224.185 217.992V225H222.953ZM231.307 225V219.048C231.307 218.323 231.147 217.816 230.827 217.528C230.518 217.24 230.107 217.096 229.595 217.096H225.835V216.12H229.867C230.401 216.12 230.865 216.216 231.259 216.408C231.665 216.6 231.979 216.915 232.203 217.352C232.438 217.789 232.555 218.371 232.555 219.096V225H231.307ZM225.819 225V220.68L225.995 219.608H227.067V220.68V225H225.819ZM237.245 221.64V220.376V217.992L237.021 216.12H238.253L238.477 217.992V220.376L238.461 221.384L237.245 221.64ZM244.383 225V219.048C244.383 218.323 244.223 217.816 243.903 217.528C243.594 217.24 243.178 217.096 242.655 217.096H239.823V216.12H242.927C243.46 216.12 243.93 216.216 244.335 216.408C244.74 216.6 245.055 216.915 245.279 217.352C245.503 217.789 245.615 218.371 245.615 219.096V225H244.383ZM253.009 225V219.272C253.009 217.821 252.433 217.096 251.281 217.096H247.329V216.12H251.553C252.119 216.12 252.599 216.237 252.993 216.472C253.399 216.696 253.708 217.048 253.921 217.528C254.135 217.997 254.241 218.595 254.241 219.32V225H253.009ZM247.329 225V216.536H248.561V225H247.329ZM260.353 225V219.048C260.353 218.323 260.193 217.816 259.873 217.528C259.564 217.24 259.148 217.096 258.625 217.096H255.745V216.12H258.897C259.43 216.12 259.9 216.216 260.305 216.408C260.71 216.6 261.025 216.915 261.249 217.352C261.473 217.789 261.585 218.371 261.585 219.096V225H260.353ZM255.745 225V224.024H262.721V225H255.745ZM264.191 225V217.992L263.967 216.12H265.199L265.423 217.992V225H264.191ZM275.34 225V219.048C275.34 218.323 275.18 217.816 274.86 217.528C274.551 217.24 274.14 217.096 273.628 217.096H269.868V216.12H273.9C274.433 216.12 274.897 216.216 275.292 216.408C275.697 216.6 276.012 216.915 276.236 217.352C276.471 217.789 276.588 218.371 276.588 219.096V225H275.34ZM269.852 225V220.68L270.028 219.608H271.1V220.68V225H269.852ZM279.09 225.16L278.018 216.12H279.25L280.178 224.024C280.733 223.971 281.256 223.853 281.746 223.672C282.237 223.491 282.669 223.235 283.042 222.904C283.426 222.563 283.72 222.131 283.922 221.608C284.125 221.075 284.21 220.435 284.178 219.688V219.288C284.178 218.851 284.104 218.472 283.954 218.152C283.816 217.821 283.592 217.56 283.282 217.368C282.984 217.165 282.6 217.048 282.13 217.016L281.33 216.968L281.41 215.976L282.306 216.04C282.914 216.072 283.442 216.205 283.89 216.44C284.349 216.675 284.706 217.011 284.962 217.448C285.218 217.885 285.357 218.445 285.378 219.128L285.394 219.576C285.426 220.547 285.288 221.379 284.978 222.072C284.68 222.765 284.237 223.331 283.65 223.768C283.074 224.205 282.397 224.536 281.618 224.76C280.84 224.984 279.997 225.117 279.09 225.16ZM289.542 225.032L289.67 224.056C290.556 224.248 291.27 224.227 291.814 223.992C292.358 223.757 292.753 223.325 292.998 222.696C293.254 222.067 293.372 221.256 293.35 220.264C293.34 219.443 293.228 218.797 293.014 218.328C292.812 217.859 292.54 217.528 292.198 217.336C291.868 217.133 291.489 217.032 291.062 217.032C290.625 217.032 290.257 217.128 289.958 217.32C289.67 217.501 289.441 217.741 289.27 218.04C289.1 218.339 288.977 218.664 288.902 219.016L288.534 218.344C288.726 217.533 289.073 216.947 289.574 216.584C290.086 216.211 290.641 216.024 291.238 216.024C291.697 216.024 292.118 216.099 292.502 216.248C292.897 216.387 293.244 216.621 293.542 216.952C293.841 217.283 294.076 217.72 294.246 218.264C294.428 218.808 294.524 219.475 294.534 220.264C294.566 221.491 294.39 222.499 294.006 223.288C293.622 224.077 293.052 224.627 292.294 224.936C291.548 225.235 290.63 225.267 289.542 225.032ZM286.582 225L287.766 218.776L286.534 216.12H287.814L288.95 218.824L287.814 225H286.582ZM298.993 221.64V220.376V217.992L298.769 216.12H300.001L300.225 217.992V220.376L300.209 221.384L298.993 221.64ZM303.475 225L306.563 217.096H301.587V216.12H307.795V217.16L304.707 225H303.475ZM301.587 217.096V213.528H302.739V217.096H301.587ZM310.676 225L313.764 217.096H308.788V216.12H314.996V217.16L311.908 225H310.676ZM308.788 217.096V213.528H309.94V217.096H308.788ZM319.35 225L318.726 221.656V218.68C318.726 218.179 318.667 217.8 318.55 217.544C318.432 217.277 318.176 217.117 317.782 217.064L316.758 216.904L316.934 215.944L318.278 216.152C318.907 216.248 319.344 216.493 319.59 216.888C319.846 217.283 319.974 217.848 319.974 218.584V221.672L320.534 225H319.35ZM316.182 225.224L315.734 224.232C316.47 223.965 317.088 223.613 317.59 223.176C318.102 222.728 318.518 222.141 318.838 221.416L319.238 222.2C319.035 222.723 318.79 223.181 318.502 223.576C318.214 223.96 317.878 224.285 317.494 224.552C317.11 224.819 316.672 225.043 316.182 225.224ZM325.594 225.192C325.359 225.192 325.151 225.107 324.97 224.936C324.799 224.765 324.714 224.541 324.714 224.264C324.714 223.976 324.799 223.747 324.97 223.576C325.151 223.405 325.359 223.32 325.594 223.32C325.839 223.32 326.047 223.405 326.218 223.576C326.389 223.747 326.474 223.976 326.474 224.264C326.474 224.541 326.389 224.765 326.218 224.936C326.047 225.107 325.839 225.192 325.594 225.192ZM327.765 225V224.312C328.81 223.256 329.696 222.333 330.421 221.544C331.146 220.744 331.696 220.029 332.069 219.4C332.442 218.771 332.629 218.173 332.629 217.608C332.629 217.011 332.464 216.52 332.133 216.136C331.813 215.752 331.306 215.56 330.613 215.56C330.186 215.56 329.781 215.677 329.397 215.912C329.024 216.147 328.688 216.445 328.389 216.808L327.701 216.136C328.128 215.677 328.581 215.309 329.061 215.032C329.541 214.744 330.106 214.6 330.757 214.6C331.376 214.6 331.909 214.723 332.357 214.968C332.816 215.213 333.168 215.56 333.413 216.008C333.658 216.445 333.781 216.963 333.781 217.56C333.781 218.211 333.594 218.867 333.221 219.528C332.858 220.189 332.352 220.893 331.701 221.64C331.061 222.376 330.32 223.187 329.477 224.072C329.754 224.051 330.042 224.035 330.341 224.024C330.64 224.003 330.922 223.992 331.189 223.992H334.277V225H327.765Z" fill="#0F434F"/>
<path d="M255.293 264V253.488H256.477V264H255.293ZM258.883 264V256.24H259.843L259.939 257.392H259.987C260.36 257.008 260.755 256.688 261.171 256.432C261.597 256.176 262.072 256.048 262.595 256.048C263.416 256.048 264.013 256.304 264.387 256.816C264.771 257.328 264.963 258.08 264.963 259.072V264H263.795V259.216C263.795 258.469 263.672 257.925 263.427 257.584C263.192 257.243 262.803 257.072 262.259 257.072C261.853 257.072 261.485 257.179 261.155 257.392C260.824 257.595 260.451 257.904 260.035 258.32V264H258.883ZM269.146 264.192C268.592 264.192 268.064 264.091 267.562 263.888C267.061 263.675 266.629 263.419 266.266 263.12L266.858 262.336C267.2 262.603 267.552 262.827 267.914 263.008C268.277 263.189 268.704 263.28 269.194 263.28C269.728 263.28 270.128 263.152 270.394 262.896C270.661 262.64 270.794 262.336 270.794 261.984C270.794 261.707 270.704 261.477 270.522 261.296C270.341 261.104 270.112 260.944 269.834 260.816C269.557 260.677 269.274 260.555 268.986 260.448C268.624 260.32 268.261 260.165 267.898 259.984C267.536 259.803 267.232 259.573 266.986 259.296C266.752 259.019 266.634 258.661 266.634 258.224C266.634 257.616 266.864 257.104 267.322 256.688C267.792 256.261 268.442 256.048 269.274 256.048C269.744 256.048 270.181 256.133 270.586 256.304C270.992 256.475 271.338 256.677 271.626 256.912L271.066 257.664C270.8 257.472 270.522 257.312 270.234 257.184C269.957 257.045 269.637 256.976 269.274 256.976C268.762 256.976 268.384 257.099 268.138 257.344C267.893 257.579 267.77 257.851 267.77 258.16C267.77 258.416 267.85 258.629 268.01 258.8C268.181 258.96 268.4 259.099 268.666 259.216C268.933 259.333 269.216 259.451 269.514 259.568C269.898 259.707 270.272 259.867 270.634 260.048C271.008 260.219 271.317 260.448 271.562 260.736C271.808 261.024 271.93 261.419 271.93 261.92C271.93 262.325 271.824 262.704 271.61 263.056C271.397 263.397 271.082 263.675 270.666 263.888C270.25 264.091 269.744 264.192 269.146 264.192ZM275.606 264.192C274.806 264.192 274.246 263.957 273.926 263.488C273.617 263.019 273.462 262.411 273.462 261.664V257.2H272.294V256.32L273.51 256.24L273.654 254.048H274.63V256.24H276.758V257.2H274.63V261.696C274.63 262.176 274.716 262.555 274.886 262.832C275.068 263.099 275.393 263.232 275.862 263.232C276.001 263.232 276.15 263.211 276.31 263.168C276.481 263.125 276.63 263.077 276.758 263.024L276.998 263.904C276.785 263.979 276.556 264.043 276.31 264.096C276.065 264.16 275.83 264.192 275.606 264.192ZM279.559 264.192C279.133 264.192 278.749 264.107 278.407 263.936C278.066 263.765 277.794 263.52 277.591 263.2C277.389 262.869 277.287 262.469 277.287 262C277.287 261.157 277.671 260.512 278.439 260.064C279.218 259.605 280.445 259.285 282.119 259.104C282.119 258.752 282.071 258.416 281.975 258.096C281.89 257.776 281.725 257.52 281.479 257.328C281.245 257.125 280.903 257.024 280.455 257.024C279.986 257.024 279.549 257.115 279.143 257.296C278.749 257.477 278.402 257.669 278.103 257.872L277.639 257.072C277.863 256.923 278.13 256.768 278.439 256.608C278.749 256.448 279.09 256.315 279.463 256.208C279.837 256.101 280.231 256.048 280.647 256.048C281.277 256.048 281.783 256.181 282.167 256.448C282.551 256.715 282.829 257.083 282.999 257.552C283.181 258.021 283.271 258.571 283.271 259.2V264H282.311L282.215 263.056H282.167C281.794 263.365 281.389 263.632 280.951 263.856C280.514 264.08 280.05 264.192 279.559 264.192ZM279.863 263.248C280.269 263.248 280.642 263.157 280.983 262.976C281.335 262.784 281.714 262.512 282.119 262.16V259.888C281.202 259.995 280.477 260.144 279.943 260.336C279.41 260.517 279.026 260.741 278.791 261.008C278.557 261.275 278.439 261.584 278.439 261.936C278.439 262.395 278.578 262.731 278.855 262.944C279.143 263.147 279.479 263.248 279.863 263.248ZM286.671 264.192C286.383 264.192 286.143 264.128 285.951 264C285.759 263.883 285.62 263.707 285.535 263.472C285.45 263.227 285.407 262.928 285.407 262.576V252.576H286.559V262.672C286.559 262.864 286.596 263.003 286.671 263.088C286.746 263.173 286.831 263.216 286.927 263.216C286.959 263.216 286.996 263.216 287.039 263.216C287.082 263.205 287.14 263.195 287.215 263.184L287.375 264.08C287.29 264.101 287.188 264.123 287.071 264.144C286.964 264.176 286.831 264.192 286.671 264.192ZM290.263 264.192C289.975 264.192 289.735 264.128 289.543 264C289.351 263.883 289.212 263.707 289.127 263.472C289.042 263.227 288.999 262.928 288.999 262.576V252.576H290.151V262.672C290.151 262.864 290.188 263.003 290.263 263.088C290.338 263.173 290.423 263.216 290.519 263.216C290.551 263.216 290.588 263.216 290.631 263.216C290.674 263.205 290.732 263.195 290.807 263.184L290.967 264.08C290.882 264.101 290.78 264.123 290.663 264.144C290.556 264.176 290.423 264.192 290.263 264.192ZM295.274 260.64V259.376V256.992L295.05 255.12H296.282L296.506 256.992V259.376L296.49 260.384L295.274 260.64ZM303.436 264L298.14 255.12H299.42L304.7 264H303.436ZM297.82 264V263.024H303.9L304.252 264H297.82ZM302.268 260.288L301.58 259.2L303.324 255.12H304.572L302.268 260.288ZM311.742 264V258.272C311.742 256.821 311.166 256.096 310.014 256.096H306.062V255.12H310.286C310.851 255.12 311.331 255.237 311.726 255.472C312.131 255.696 312.441 256.048 312.654 256.528C312.867 256.997 312.974 257.595 312.974 258.32V264H311.742ZM306.062 264V255.536H307.294V264H306.062ZM316.221 264L319.309 256.096H314.333V255.12H320.541V256.16L317.453 264H316.221ZM314.333 256.096V252.528H315.485V256.096H314.333ZM325.594 264.192C325.359 264.192 325.151 264.107 324.97 263.936C324.799 263.765 324.714 263.541 324.714 263.264C324.714 262.976 324.799 262.747 324.97 262.576C325.151 262.405 325.359 262.32 325.594 262.32C325.839 262.32 326.047 262.405 326.218 262.576C326.389 262.747 326.474 262.976 326.474 263.264C326.474 263.541 326.389 263.765 326.218 263.936C326.047 264.107 325.839 264.192 325.594 264.192ZM330.885 264.192C330.341 264.192 329.861 264.123 329.445 263.984C329.029 263.845 328.666 263.669 328.357 263.456C328.048 263.232 327.781 262.997 327.557 262.752L328.149 261.984C328.458 262.304 328.821 262.592 329.237 262.848C329.664 263.093 330.192 263.216 330.821 263.216C331.461 263.216 331.984 263.04 332.389 262.688C332.805 262.325 333.013 261.845 333.013 261.248C333.013 260.832 332.901 260.464 332.677 260.144C332.464 259.824 332.112 259.579 331.621 259.408C331.141 259.227 330.49 259.136 329.669 259.136V258.224C330.405 258.224 330.986 258.139 331.413 257.968C331.85 257.787 332.165 257.547 332.357 257.248C332.549 256.949 332.645 256.613 332.645 256.24C332.645 255.728 332.48 255.323 332.149 255.024C331.818 254.715 331.37 254.56 330.805 254.56C330.368 254.56 329.962 254.661 329.589 254.864C329.216 255.056 328.88 255.307 328.581 255.616L327.941 254.864C328.336 254.501 328.768 254.203 329.237 253.968C329.706 253.723 330.24 253.6 330.837 253.6C331.413 253.6 331.925 253.701 332.373 253.904C332.821 254.107 333.173 254.4 333.429 254.784C333.696 255.157 333.829 255.616 333.829 256.16C333.829 256.789 333.653 257.307 333.301 257.712C332.96 258.107 332.506 258.405 331.941 258.608V258.672C332.357 258.768 332.736 258.933 333.077 259.168C333.418 259.392 333.69 259.685 333.893 260.048C334.096 260.4 334.197 260.811 334.197 261.28C334.197 261.888 334.048 262.411 333.749 262.848C333.45 263.275 333.05 263.605 332.549 263.84C332.048 264.075 331.493 264.192 330.885 264.192Z" fill="#0F434F"/>
<path d="M149.254 186.224L149.126 185.344C149.564 185.301 149.9 185.205 150.134 185.056C150.38 184.896 150.55 184.683 150.646 184.416C150.742 184.149 150.79 183.819 150.79 183.424V177.12H154.71C155.244 177.12 155.708 177.216 156.102 177.408C156.508 177.6 156.822 177.915 157.046 178.352C157.281 178.789 157.398 179.371 157.398 180.096V186H156.166V180.048C156.166 179.323 156.006 178.816 155.686 178.528C155.377 178.24 154.961 178.096 154.438 178.096H152.022V183.296C152.022 183.925 151.926 184.448 151.734 184.864C151.542 185.269 151.244 185.584 150.838 185.808C150.433 186.021 149.905 186.16 149.254 186.224ZM159.302 186V178.992L159.078 177.12H160.31L160.534 178.992V186H159.302ZM162.472 182.64V181.376V178.992L162.248 177.12H163.48L163.704 178.992V181.376L163.688 182.384L162.472 182.64ZM166.266 186.16L165.29 178.096L166.442 177.472L167.354 185.024C167.792 184.981 168.213 184.912 168.618 184.816C169.034 184.709 169.413 184.56 169.754 184.368C170.096 184.165 170.394 183.909 170.65 183.6C170.906 183.291 171.098 182.912 171.226 182.464C171.354 182.005 171.402 181.461 171.37 180.832V180.448C171.37 180 171.296 179.6 171.146 179.248C171.008 178.896 170.794 178.619 170.506 178.416C170.218 178.203 169.866 178.096 169.45 178.096H165.29L165.178 177.12H169.546C170.506 177.12 171.242 177.419 171.754 178.016C172.277 178.613 172.554 179.397 172.586 180.368L172.602 180.864C172.634 181.835 172.49 182.656 172.17 183.328C171.861 183.989 171.413 184.523 170.826 184.928C170.24 185.323 169.552 185.616 168.762 185.808C167.984 186 167.152 186.117 166.266 186.16ZM174.281 182.64V181.376V178.992L174.057 177.12H175.289L175.513 178.992V181.376L175.497 182.384L174.281 182.64ZM178.059 186.16L176.987 177.12H178.219L179.147 185.024C179.702 184.971 180.225 184.853 180.715 184.672C181.206 184.491 181.638 184.235 182.011 183.904C182.395 183.563 182.689 183.131 182.891 182.608C183.094 182.075 183.179 181.435 183.147 180.688V180.288C183.147 179.851 183.073 179.472 182.923 179.152C182.785 178.821 182.561 178.56 182.251 178.368C181.953 178.165 181.569 178.048 181.099 178.016L180.299 177.968L180.379 176.976L181.275 177.04C181.883 177.072 182.411 177.205 182.859 177.44C183.318 177.675 183.675 178.011 183.931 178.448C184.187 178.885 184.326 179.445 184.347 180.128L184.363 180.576C184.395 181.547 184.257 182.379 183.947 183.072C183.649 183.765 183.206 184.331 182.619 184.768C182.043 185.205 181.366 185.536 180.587 185.76C179.809 185.984 178.966 186.117 178.059 186.16ZM189.855 186V180.048C189.855 179.323 189.695 178.816 189.375 178.528C189.066 178.24 188.65 178.096 188.127 178.096H185.295V177.12H188.399C188.932 177.12 189.402 177.216 189.807 177.408C190.212 177.6 190.527 177.915 190.751 178.352C190.975 178.789 191.087 179.371 191.087 180.096V186H189.855ZM192.497 186V185.024H194.625C195.201 185.024 195.681 184.912 196.065 184.688C196.46 184.464 196.753 184.133 196.945 183.696C197.137 183.248 197.233 182.704 197.233 182.064V181.056C197.233 180.416 197.137 179.877 196.945 179.44C196.753 178.992 196.46 178.656 196.065 178.432C195.681 178.208 195.201 178.096 194.625 178.096H192.497V177.12H194.865C195.633 177.12 196.284 177.269 196.817 177.568C197.351 177.867 197.756 178.315 198.033 178.912C198.321 179.509 198.465 180.24 198.465 181.104V182.016C198.465 182.88 198.321 183.611 198.033 184.208C197.756 184.795 197.351 185.243 196.817 185.552C196.284 185.851 195.633 186 194.865 186H192.497ZM205.349 186V180.048C205.349 179.323 205.189 178.816 204.869 178.528C204.559 178.24 204.149 178.096 203.637 178.096H199.877V177.12H203.909C204.442 177.12 204.906 177.216 205.301 177.408C205.706 177.6 206.021 177.915 206.245 178.352C206.479 178.789 206.597 179.371 206.597 180.096V186H205.349ZM199.861 186V181.68L200.037 180.608H201.109V181.68V186H199.861ZM212.598 186L215.686 178.096H210.71V177.12H216.918V178.16L213.83 186H212.598ZM210.71 178.096V174.528H211.862V178.096H210.71ZM221.272 186L220.648 182.656V179.68C220.648 179.179 220.589 178.8 220.472 178.544C220.354 178.277 220.098 178.117 219.704 178.064L218.68 177.904L218.856 176.944L220.2 177.152C220.829 177.248 221.266 177.493 221.512 177.888C221.768 178.283 221.896 178.848 221.896 179.584V182.672L222.456 186H221.272ZM218.104 186.224L217.656 185.232C218.392 184.965 219.01 184.613 219.512 184.176C220.024 183.728 220.44 183.141 220.76 182.416L221.16 183.2C220.957 183.723 220.712 184.181 220.424 184.576C220.136 184.96 219.8 185.285 219.416 185.552C219.032 185.819 218.594 186.043 218.104 186.224ZM228.001 186V180.048C228.001 179.323 227.841 178.816 227.521 178.528C227.211 178.24 226.795 178.096 226.273 178.096H223.441V177.12H226.545C227.078 177.12 227.547 177.216 227.953 177.408C228.358 177.6 228.673 177.915 228.897 178.352C229.121 178.789 229.233 179.371 229.233 180.096V186H228.001ZM231.811 186.16L230.835 178.096L231.987 177.472L232.899 185.024C233.337 184.981 233.758 184.912 234.163 184.816C234.579 184.709 234.958 184.56 235.299 184.368C235.641 184.165 235.939 183.909 236.195 183.6C236.451 183.291 236.643 182.912 236.771 182.464C236.899 182.005 236.947 181.461 236.915 180.832V180.448C236.915 180 236.841 179.6 236.691 179.248C236.553 178.896 236.339 178.619 236.051 178.416C235.763 178.203 235.411 178.096 234.995 178.096H230.835L230.723 177.12H235.091C236.051 177.12 236.787 177.419 237.299 178.016C237.822 178.613 238.099 179.397 238.131 180.368L238.147 180.864C238.179 181.835 238.035 182.656 237.715 183.328C237.406 183.989 236.958 184.523 236.371 184.928C235.785 185.323 235.097 185.616 234.307 185.808C233.529 186 232.697 186.117 231.811 186.16ZM244.002 186V180.048C244.002 179.323 243.842 178.816 243.522 178.528C243.213 178.24 242.797 178.096 242.274 178.096H239.394V177.12H242.546C243.079 177.12 243.549 177.216 243.954 177.408C244.359 177.6 244.674 177.915 244.898 178.352C245.122 178.789 245.234 179.371 245.234 180.096V186H244.002ZM239.394 186V185.024H246.37V186H239.394Z" fill="#0F434F"/>
<path d="M100.826 306.2V297.048C100.826 296.323 100.666 295.816 100.346 295.528C100.037 295.24 99.621 295.096 99.0984 295.096H95.9944V294.12H99.3864C99.9197 294.12 100.384 294.216 100.778 294.408C101.184 294.6 101.498 294.915 101.722 295.352C101.957 295.789 102.074 296.371 102.074 297.096V306.2H100.826ZM105.329 303L108.417 295.096H103.441V294.12H109.649V295.16L106.561 303H105.329ZM103.441 295.096V291.528H104.593V295.096H103.441ZM111.875 303.16L110.755 294.12H111.939L112.899 302.072C113.731 302.019 114.461 301.869 115.091 301.624C115.731 301.379 116.264 301.027 116.691 300.568C117.117 300.109 117.437 299.539 117.651 298.856C117.864 298.173 117.965 297.373 117.955 296.456L117.939 294.12H119.171L119.187 296.408C119.197 297.923 118.931 299.176 118.387 300.168C117.853 301.16 117.043 301.907 115.955 302.408C114.867 302.899 113.507 303.149 111.875 303.16ZM112.371 299.704L112.083 298.84C112.659 298.573 113.112 298.291 113.443 297.992C113.773 297.693 114.013 297.315 114.163 296.856C114.312 296.397 114.392 295.811 114.403 295.096L114.419 294.152H115.603L115.587 295.08C115.576 295.88 115.464 296.568 115.251 297.144C115.037 297.72 114.696 298.211 114.227 298.616C113.768 299.021 113.149 299.384 112.371 299.704ZM122.916 303.224L122.788 302.344C123.225 302.301 123.561 302.205 123.796 302.056C124.041 301.896 124.212 301.683 124.308 301.416C124.404 301.149 124.452 300.819 124.452 300.424V294.12H128.372C128.905 294.12 129.369 294.216 129.764 294.408C130.169 294.6 130.484 294.915 130.708 295.352C130.943 295.789 131.06 296.371 131.06 297.096V303H129.828V297.048C129.828 296.323 129.668 295.816 129.348 295.528C129.039 295.24 128.623 295.096 128.1 295.096H125.684V300.296C125.684 300.925 125.588 301.448 125.396 301.864C125.204 302.269 124.905 302.584 124.5 302.808C124.095 303.021 123.567 303.16 122.916 303.224ZM132.963 299.64V298.376V295.992L132.739 294.12H133.971L134.195 295.992V298.376L134.179 299.384L132.963 299.64ZM140.309 303V297.048C140.309 296.323 140.149 295.816 139.829 295.528C139.52 295.24 139.104 295.096 138.581 295.096H135.701V294.12H138.853C139.387 294.12 139.856 294.216 140.261 294.408C140.667 294.6 140.981 294.915 141.205 295.352C141.429 295.789 141.541 296.371 141.541 297.096V303H140.309ZM135.701 303V302.024H142.677V303H135.701ZM149.331 303V297.048C149.331 296.323 149.171 295.816 148.851 295.528C148.542 295.24 148.131 295.096 147.619 295.096H143.859V294.12H147.891C148.425 294.12 148.889 294.216 149.283 294.408C149.689 294.6 150.003 294.915 150.227 295.352C150.462 295.789 150.579 296.371 150.579 297.096V303H149.331ZM143.843 303V298.68L144.019 297.608H145.091V298.68V303H143.843ZM159.717 306.2V297.048C159.717 296.323 159.557 295.816 159.237 295.528C158.928 295.24 158.512 295.096 157.989 295.096H154.885V294.12H158.277C158.81 294.12 159.274 294.216 159.669 294.408C160.074 294.6 160.389 294.915 160.613 295.352C160.848 295.789 160.965 296.371 160.965 297.096V306.2H159.717ZM163.532 303.16L162.556 295.096L163.708 294.472L164.62 302.024C165.057 301.981 165.478 301.912 165.884 301.816C166.3 301.709 166.678 301.56 167.02 301.368C167.361 301.165 167.66 300.909 167.916 300.6C168.172 300.291 168.364 299.912 168.492 299.464C168.62 299.005 168.668 298.461 168.636 297.832V297.448C168.636 297 168.561 296.6 168.412 296.248C168.273 295.896 168.06 295.619 167.772 295.416C167.484 295.203 167.132 295.096 166.716 295.096H162.556L162.444 294.12H166.812C167.772 294.12 168.508 294.419 169.02 295.016C169.542 295.613 169.82 296.397 169.852 297.368L169.868 297.864C169.9 298.835 169.756 299.656 169.436 300.328C169.126 300.989 168.678 301.523 168.092 301.928C167.505 302.323 166.817 302.616 166.028 302.808C165.249 303 164.417 303.117 163.532 303.16ZM174.171 303.032L174.299 302.056C175.184 302.248 175.899 302.227 176.443 301.992C176.987 301.757 177.381 301.325 177.627 300.696C177.883 300.067 178 299.256 177.979 298.264C177.968 297.443 177.856 296.797 177.643 296.328C177.44 295.859 177.168 295.528 176.827 295.336C176.496 295.133 176.117 295.032 175.691 295.032C175.253 295.032 174.885 295.128 174.587 295.32C174.299 295.501 174.069 295.741 173.899 296.04C173.728 296.339 173.605 296.664 173.531 297.016L173.163 296.344C173.355 295.533 173.701 294.947 174.203 294.584C174.715 294.211 175.269 294.024 175.867 294.024C176.325 294.024 176.747 294.099 177.131 294.248C177.525 294.387 177.872 294.621 178.171 294.952C178.469 295.283 178.704 295.72 178.875 296.264C179.056 296.808 179.152 297.475 179.163 298.264C179.195 299.491 179.019 300.499 178.635 301.288C178.251 302.077 177.68 302.627 176.923 302.936C176.176 303.235 175.259 303.267 174.171 303.032ZM171.211 303L172.395 296.776L171.163 294.12H172.443L173.579 296.824L172.443 303H171.211ZM185.002 303V297.048C185.002 296.323 184.842 295.816 184.522 295.528C184.213 295.24 183.797 295.096 183.274 295.096H180.394V294.12H183.546C184.079 294.12 184.549 294.216 184.954 294.408C185.359 294.6 185.674 294.915 185.898 295.352C186.122 295.789 186.234 296.371 186.234 297.096V303H185.002ZM180.394 303V302.024H187.37V303H180.394Z" fill="#0F434F"/>
<path d="M237.902 39V32.76C237.902 32.344 237.806 32.0507 237.614 31.88C237.433 31.6987 237.171 31.608 236.83 31.608H232.654V29.864H237.454C237.987 29.864 238.462 29.9653 238.878 30.168C239.294 30.3707 239.619 30.6907 239.854 31.128C240.099 31.5653 240.222 32.1467 240.222 32.872V39H237.902ZM232.558 39V34.632L232.878 33.56H234.878V34.632V39H232.558ZM241.514 35.64V34.232V31.736L241.338 29.864H243.642L243.834 31.736V34.232L243.818 35.24L241.514 35.64ZM250.095 39L244.927 29.864H247.263L252.415 39H250.095ZM244.767 39V37.272H251.167L251.823 39H244.767ZM250.239 35.416L248.927 33.448L250.367 29.864H252.655L250.239 35.416ZM256.912 39.016L256.736 37.288C257.077 37.256 257.381 37.1867 257.648 37.08C257.915 36.9627 258.139 36.7973 258.32 36.584C258.512 36.36 258.661 36.0667 258.768 35.704C258.875 35.3413 258.949 34.8987 258.992 34.376L259.184 31.608H253.632V29.864H261.68L261.6 31.368L261.424 33.768C261.392 34.4933 261.285 35.1707 261.104 35.8C260.933 36.4293 260.677 36.984 260.336 37.464C259.995 37.944 259.541 38.3227 258.976 38.6C258.421 38.8667 257.733 39.0053 256.912 39.016ZM253.504 42.2V34.536L253.824 33.448H255.824V34.52V42.2H253.504ZM262.806 35.64V34.232V31.736L262.63 29.864H264.934L265.126 31.736V34.232L265.11 35.24L262.806 35.64ZM267.834 39L270.714 31.608H266.074V29.864H273.034V31.768L270.154 39H267.834ZM266.074 31.608V27.528H268.154V31.608H266.074ZM273.987 39V37.272H277.219C277.528 37.272 277.8 37.224 278.035 37.128C278.28 37.0213 278.488 36.872 278.659 36.68C278.83 36.4773 278.958 36.2373 279.043 35.96C279.128 35.6827 279.171 35.368 279.171 35.016V33.832C279.171 33.4053 279.107 33.0267 278.979 32.696C278.862 32.3547 278.67 32.088 278.403 31.896C278.136 31.704 277.8 31.608 277.395 31.608H276.243L275.955 32.952C275.88 33.3467 275.912 33.6453 276.051 33.848C276.19 34.0507 276.483 34.2 276.931 34.296L276.563 35.736C275.784 35.7253 275.187 35.5867 274.771 35.32C274.355 35.0427 274.083 34.6853 273.955 34.248C273.838 33.8 273.827 33.2987 273.923 32.744L274.563 29.864H277.939C278.686 29.864 279.32 30.0347 279.843 30.376C280.376 30.7173 280.782 31.192 281.059 31.8C281.347 32.408 281.491 33.1227 281.491 33.944V34.904C281.491 35.544 281.4 36.12 281.219 36.632C281.048 37.144 280.798 37.576 280.467 37.928C280.136 38.28 279.742 38.5467 279.283 38.728C278.835 38.9093 278.328 39 277.763 39H273.987ZM291.061 39H288.597L285.589 34.344L284.165 39H281.973L283.749 33.512L284.229 32.28L282.757 29.864H285.077L286.357 31.944L287.509 33.688L287.941 32.232L288.581 29.864H290.773L288.853 35.688L291.061 39ZM294.859 35.64V34.232V31.736L294.683 29.864H296.987L297.179 31.736V34.232L297.163 35.24L294.859 35.64ZM298.24 39V37.272H300.592V32.648C300.592 32.2427 300.512 31.9653 300.352 31.816C300.203 31.656 299.989 31.56 299.712 31.528L298.592 31.384L298.88 29.672L300.88 29.928C301.541 30.0133 302.043 30.296 302.384 30.776C302.725 31.2453 302.896 31.848 302.896 32.584V39H298.24ZM304.278 35.64V34.232V31.736L304.102 29.864H306.406L306.598 31.736V34.232L306.582 35.24L304.278 35.64ZM311.146 39.016L310.97 37.288C311.312 37.256 311.616 37.1867 311.882 37.08C312.149 36.9627 312.373 36.7973 312.554 36.584C312.746 36.36 312.896 36.0667 313.002 35.704C313.109 35.3413 313.184 34.8987 313.226 34.376L313.418 31.608H307.866V29.864H315.914L315.834 31.368L315.658 33.768C315.626 34.4933 315.52 35.1707 315.338 35.8C315.168 36.4293 314.912 36.984 314.57 37.464C314.229 37.944 313.776 38.3227 313.21 38.6C312.656 38.8667 311.968 39.0053 311.146 39.016ZM307.738 42.2V34.536L308.058 33.448H310.058V34.52V42.2H307.738ZM316.56 39.272L316.352 37.704C316.768 37.6507 317.077 37.5707 317.28 37.464C317.483 37.3467 317.616 37.176 317.68 36.952C317.755 36.728 317.792 36.44 317.792 36.088V29.864H322.64C323.173 29.864 323.643 29.9653 324.048 30.168C324.464 30.3707 324.789 30.6907 325.024 31.128C325.269 31.5653 325.392 32.1467 325.392 32.872V39H323.072V32.76C323.072 32.344 322.976 32.0507 322.784 31.88C322.603 31.6987 322.341 31.608 322 31.608H320.112V35.784C320.112 36.6053 319.984 37.256 319.728 37.736C319.483 38.216 319.099 38.5733 318.576 38.808C318.053 39.0427 317.381 39.1973 316.56 39.272ZM331.94 39V32.76C331.94 32.344 331.844 32.0507 331.652 31.88C331.471 31.6987 331.209 31.608 330.868 31.608H326.692V29.864H331.492C332.025 29.864 332.5 29.9653 332.916 30.168C333.332 30.3707 333.657 30.6907 333.892 31.128C334.137 31.5653 334.26 32.1467 334.26 32.872V39H331.94ZM326.596 39V34.632L326.916 33.56H328.916V34.632V39H326.596Z" fill="#0F434F"/>
<path opacity="0.2" d="M230.862 271.121C233.902 271.001 236.35 270.506 236.327 270.013C236.304 269.52 233.828 269.217 230.787 269.337C227.747 269.457 225.299 269.953 225.322 270.446C225.341 270.938 227.821 271.241 230.862 271.121Z" fill="#0F434F"/>
<path fill-rule="evenodd" clip-rule="evenodd" d="M216.984 257.901C217.678 259.195 218.8 261.055 220.424 262.896C223.432 265.633 227.915 266.609 231.705 264.847C236 262.852 237.627 259.04 237.131 255.138V255.119C237.313 254.355 237.52 254.007 237.734 253.72C237.796 253.635 237.873 253.54 237.958 253.433C238.24 253.085 238.629 252.605 239.005 251.87C239.238 251.418 239.514 250.638 239.523 249.871C239.53 249.483 239.465 249.022 239.215 248.605C238.95 248.156 238.518 247.834 237.948 247.695C237.108 247.49 236.389 247.815 235.928 248.267C235.763 248.431 235.65 248.598 235.562 248.782C235.523 248.946 235.468 249.107 235.403 249.271C235.112 249.997 234.57 250.755 233.847 251.51C232.395 253.016 230.136 254.566 227.377 255.848C224.615 257.13 221.895 257.888 219.72 258.062C218.686 258.144 217.749 258.1 216.984 257.901ZM216.352 256.653C215.48 254.737 218.68 250.945 223.753 248.589C228.648 246.319 233.419 246.025 234.713 247.853C234.771 248.156 234.726 248.52 234.554 248.946C234.317 249.53 233.86 250.193 233.183 250.897C231.828 252.302 229.675 253.793 226.988 255.04C224.301 256.287 221.688 257.007 219.649 257.171C218.628 257.253 217.775 257.196 217.137 257.013C216.809 256.919 216.553 256.799 216.355 256.653H216.352ZM236.567 252.268L236.538 252.305C236.441 251.964 236.334 251.636 236.227 251.32C236.282 251.219 236.34 251.109 236.398 250.992C236.45 250.885 236.505 250.774 236.557 250.66C236.622 250.521 236.69 250.386 236.752 250.256C236.868 250.019 236.992 249.795 237.115 249.631C237.176 249.549 237.241 249.476 237.309 249.426C237.377 249.375 237.458 249.337 237.543 249.337C237.705 249.337 237.851 249.451 237.938 249.615C238.029 249.779 238.074 250.01 238.045 250.275C237.987 250.78 237.442 251.604 236.57 252.268H236.567Z" fill="#FF1E47"/>
<path fill-rule="evenodd" clip-rule="evenodd" d="M215.704 244.939C214.735 245.823 214.978 246.938 215.218 247.383C214.637 247.118 213.97 246.369 213.775 245.921C213.584 245.611 213.299 244.772 213.665 243.872C214.034 242.972 214.822 242.94 215.169 243.038C215.788 243.209 216.67 244.052 215.704 244.939ZM223.403 248.617C226.08 247.373 228.738 246.713 230.826 246.606C231.87 246.552 232.752 246.638 233.413 246.843C234.077 247.048 234.466 247.354 234.635 247.702C234.81 248.059 234.813 248.52 234.58 249.104C234.343 249.688 233.883 250.351 233.209 251.055C231.854 252.46 229.698 253.95 227.011 255.198C224.323 256.445 221.714 257.165 219.672 257.329C218.65 257.411 217.798 257.354 217.159 257.171C216.521 256.988 216.145 256.698 215.976 256.35C215.788 255.965 215.785 255.444 216.051 254.784C216.313 254.127 216.822 253.376 217.568 252.596L217.834 252.318L217.594 252.018C217.072 251.361 216.787 250.73 216.686 250.364L216.68 250.332L216.667 250.304C216.449 249.805 216.274 248.955 216.223 248.027C216.197 247.579 216.2 247.127 216.239 246.707C217.114 247.976 218.8 249.363 221.49 249.227C221.681 249.217 221.856 249.22 222.019 249.23L222.151 249.239L222.268 249.176C222.634 248.984 223.01 248.797 223.399 248.617H223.403ZM212.666 249.663C212.845 249.657 213.015 249.584 213.139 249.459C213.263 249.334 213.333 249.167 213.333 248.993C213.333 248.819 213.263 248.652 213.139 248.527C213.015 248.402 212.845 248.329 212.666 248.324C212.488 248.329 212.318 248.402 212.194 248.527C212.07 248.652 212 248.819 212 248.993C212 249.167 212.07 249.334 212.194 249.459C212.318 249.584 212.488 249.657 212.666 249.663Z" fill="white"/>
<path d="M242 265.769C242 269.763 238.676 273 234.577 273C230.477 273 227.153 269.763 227.153 265.769C227.153 261.776 230.477 258.538 234.577 258.538C238.676 258.538 242 261.776 242 265.769Z" fill="white"/>
<path d="M234.609 260.496L234.544 269.937" stroke="#0F434F" stroke-miterlimit="10" stroke-linecap="round"/>
<path d="M229.941 263.433C230.168 263.306 230.46 263.369 230.622 263.591L234.577 269.748L238.629 263.685C238.791 263.464 239.083 263.401 239.309 263.559C239.536 263.717 239.601 264.001 239.439 264.222L234.966 270.916C234.868 271.042 234.706 271.137 234.544 271.137C234.382 271.137 234.22 271.042 234.123 270.916L229.779 264.127C229.714 264.033 229.714 263.969 229.714 263.875C229.714 263.717 229.811 263.559 229.941 263.464V263.433Z" fill="#0F434F"/>
<path d="M229.941 263.433C230.168 263.306 230.46 263.369 230.622 263.591L234.577 269.748L238.629 263.685C238.791 263.464 239.083 263.401 239.309 263.559C239.536 263.717 239.601 264.001 239.439 264.222L234.966 270.916C234.868 271.042 234.706 271.137 234.544 271.137C234.382 271.137 234.22 271.042 234.123 270.916L229.779 264.127C229.714 264.033 229.714 263.969 229.714 263.875C229.714 263.717 229.811 263.559 229.941 263.464V263.433Z" stroke="black"/>
<circle cx="258" cy="174" r="2" fill="#0F434F"/>
<circle cx="258" cy="180" r="2" fill="#0F434F"/>
<circle cx="258" cy="186" r="2" fill="#0F434F"/>
<path opacity="0.2" d="M214.08 307.832C216.507 307.739 218.461 307.354 218.445 306.971C218.429 306.588 216.448 306.352 214.021 306.445C211.595 306.538 209.64 306.923 209.657 307.306C209.673 307.689 211.654 307.925 214.08 307.832Z" fill="white"/>
<path fill-rule="evenodd" clip-rule="evenodd" d="M202.999 297.569C203.553 298.573 204.448 300.017 205.746 301.447C208.147 303.573 211.727 304.33 214.754 302.964C218.185 301.415 219.483 298.456 219.088 295.425L219.087 295.41C219.234 294.818 219.399 294.548 219.569 294.325C219.62 294.258 219.68 294.185 219.749 294.102C219.974 293.831 220.284 293.458 220.586 292.887C220.771 292.536 220.993 291.932 221 291.336C221.004 291.034 220.953 290.677 220.754 290.352C220.542 290.005 220.197 289.755 219.742 289.647C219.071 289.489 218.497 289.741 218.128 290.09C217.995 290.217 217.905 290.348 217.837 290.489C217.804 290.616 217.762 290.743 217.709 290.87C217.476 291.433 217.044 292.023 216.466 292.607C215.306 293.776 213.504 294.98 211.299 295.975C209.094 296.97 206.922 297.558 205.184 297.694C204.358 297.759 203.611 297.723 202.999 297.569ZM202.493 296.6C201.796 295.112 204.351 292.168 208.402 290.34C212.31 288.576 216.12 288.348 217.154 289.769C217.2 290.004 217.165 290.285 217.027 290.616C216.839 291.07 216.473 291.586 215.932 292.132C214.85 293.222 213.131 294.379 210.985 295.348C208.838 296.317 206.753 296.874 205.124 297.002C204.309 297.066 203.628 297.021 203.117 296.879C202.856 296.806 202.65 296.711 202.493 296.6ZM218.635 293.194L218.611 293.222C218.532 292.957 218.448 292.702 218.361 292.458C218.406 292.379 218.451 292.293 218.497 292.203C218.538 292.12 218.582 292.032 218.624 291.944C218.676 291.837 218.729 291.73 218.779 291.63C218.873 291.445 218.97 291.272 219.068 291.145C219.117 291.081 219.169 291.026 219.224 290.986C219.279 290.946 219.342 290.918 219.411 290.918C219.541 290.918 219.656 291.008 219.728 291.134C219.8 291.262 219.837 291.44 219.812 291.647C219.764 292.039 219.329 292.678 218.635 293.194Z" fill="#FF1E47"/>
<path fill-rule="evenodd" clip-rule="evenodd" d="M201.976 287.504C201.204 288.191 201.397 289.056 201.589 289.402C201.126 289.197 200.592 288.615 200.436 288.268C200.285 288.028 200.055 287.375 200.348 286.677C200.643 285.979 201.272 285.954 201.55 286.029C202.044 286.161 202.749 286.817 201.976 287.504ZM208.124 290.359C210.264 289.393 212.384 288.88 214.051 288.797C214.885 288.755 215.588 288.821 216.116 288.98C216.646 289.139 216.956 289.376 217.092 289.647C217.231 289.923 217.234 290.282 217.047 290.735C216.859 291.188 216.491 291.704 215.951 292.25C214.87 293.34 213.149 294.498 211.003 295.466C208.857 296.435 206.772 296.993 205.144 297.121C204.327 297.185 203.647 297.139 203.137 296.997C202.626 296.855 202.327 296.63 202.193 296.361C202.042 296.063 202.041 295.657 202.253 295.145C202.462 294.634 202.869 294.052 203.465 293.445L203.678 293.229L203.487 292.996C203.071 292.487 202.843 291.995 202.762 291.712L202.756 291.689L202.745 291.667C202.571 291.28 202.431 290.619 202.39 289.899C202.369 289.551 202.373 289.201 202.404 288.874C203.103 289.858 204.449 290.935 206.598 290.831C206.75 290.824 206.89 290.825 207.021 290.835L207.127 290.842L207.221 290.794C207.513 290.644 207.813 290.499 208.124 290.359ZM199.55 291.172C199.853 291.172 200.1 290.939 200.1 290.651C200.1 290.364 199.853 290.13 199.55 290.13C199.245 290.13 199 290.364 199 290.651C199 290.939 199.245 291.172 199.55 291.172Z" fill="white"/>
<rect x="260" y="61" width="75" height="75" rx="10" fill="#0F434F"/>
<path opacity="0.2" d="M309.556 133.104C316.726 132.814 322.499 131.611 322.451 130.416C322.403 129.221 316.551 128.487 309.381 128.776C302.211 129.065 296.438 130.268 296.486 131.463C296.534 132.658 302.386 133.393 309.556 133.104Z" fill="white"/>
<path fill-rule="evenodd" clip-rule="evenodd" d="M276.816 101.087C278.453 104.221 281.097 108.726 284.93 113.187C292.025 119.818 302.601 122.18 311.545 117.917C321.682 113.087 325.519 103.856 324.351 94.4003L324.346 94.3543C324.782 92.5055 325.271 91.6642 325.772 90.9676C325.921 90.7595 326.1 90.5312 326.303 90.2726C326.97 89.4275 327.886 88.2655 328.777 86.4847C329.324 85.3897 329.979 83.5037 329.999 81.6454C330.012 80.7034 329.863 79.5886 329.274 78.5769C328.648 77.4944 327.629 76.7141 326.282 76.3775C324.301 75.8827 322.606 76.671 321.516 77.7593C321.122 78.1559 320.857 78.5633 320.654 79.0038C320.559 79.3983 320.434 79.7949 320.277 80.1903C319.589 81.9492 318.312 83.7872 316.605 85.609C313.178 89.2572 307.852 93.0115 301.337 96.1156C294.823 99.2201 288.407 101.053 283.272 101.479C280.831 101.681 278.622 101.57 276.816 101.087ZM275.319 98.0655C273.26 93.4235 280.811 84.2405 292.779 78.5367C304.325 73.0356 315.581 72.3236 318.636 76.7555C318.772 77.4899 318.669 78.3676 318.263 79.4004C317.707 80.8153 316.626 82.4237 315.026 84.127C311.831 87.5286 306.75 91.1387 300.409 94.1607C294.068 97.1823 287.906 98.9217 283.094 99.3208C280.686 99.5206 278.672 99.3788 277.164 98.9362C276.393 98.7091 275.784 98.4132 275.319 98.0655ZM323.012 87.4403L322.942 87.5294C322.71 86.7018 322.461 85.9061 322.204 85.1461C322.337 84.8991 322.469 84.6301 322.606 84.3487C322.726 84.0909 322.855 83.8174 322.979 83.5422C323.132 83.2094 323.29 82.8742 323.439 82.5625C323.717 81.986 324.002 81.4464 324.293 81.0486C324.438 80.8497 324.591 80.6777 324.753 80.5533C324.914 80.429 325.101 80.3424 325.304 80.3424C325.689 80.3424 326.029 80.6213 326.24 81.0146C326.456 81.4154 326.564 81.9686 326.489 82.6139C326.348 83.8389 325.063 85.8328 323.012 87.4403Z" fill="#FF1E47"/>
<path fill-rule="evenodd" clip-rule="evenodd" d="M273.794 69.691C271.511 71.8344 272.083 74.5323 272.65 75.6136C271.283 74.9724 269.704 73.1581 269.244 72.0743C268.796 71.3271 268.117 69.2885 268.983 67.112C269.853 64.9354 271.714 64.8566 272.534 65.0895C273.993 65.5015 276.078 67.5475 273.794 69.691ZM291.959 78.5979C298.279 75.585 304.545 73.9853 309.468 73.7238C311.934 73.5928 314.011 73.8 315.569 74.2944C317.135 74.7909 318.051 75.5315 318.453 76.3757C318.863 77.2369 318.872 78.3588 318.321 79.7695C317.765 81.1839 316.679 82.7923 315.084 84.4956C311.889 87.8973 306.804 91.5074 300.463 94.5294C294.122 97.551 287.964 99.2908 283.152 99.6895C280.74 99.8892 278.73 99.7475 277.222 99.3049C275.713 98.8623 274.83 98.1598 274.432 97.3189C273.989 96.3898 273.985 95.1249 274.611 93.5261C275.228 91.9318 276.43 90.1178 278.191 88.2247L278.821 87.5517L278.258 86.8243C277.027 85.235 276.355 83.7008 276.115 82.8184L276.098 82.7455L276.065 82.6767C275.551 81.4695 275.137 79.4098 275.017 77.164C274.955 76.0777 274.967 74.9861 275.058 73.9646C277.122 77.0355 281.101 80.394 287.45 80.0708C287.897 80.0476 288.312 80.0525 288.697 80.0811L289.012 80.1043L289.29 79.9531C290.152 79.4877 291.039 79.0351 291.959 78.5979ZM266.625 81.133C267.52 81.133 268.249 80.4056 268.249 79.5088C268.249 78.612 267.52 77.8847 266.625 77.8847C265.725 77.8847 265 78.612 265 79.5088C265 80.4056 265.725 81.133 266.625 81.133Z" fill="white"/>
</svg>
