<svg width="128" height="128" viewBox="0 0 128 128" fill="none" xmlns="http://www.w3.org/2000/svg">
<g filter="url(#filter0_d_2_284)">
<rect x="4" width="120" height="120" rx="30" fill="#0F434F"/>
<path opacity="0.2" d="M46.7671 83.4289C51.6743 83.231 55.6257 82.4076 55.5928 81.5897C55.5598 80.7718 51.5549 80.2692 46.6476 80.4671C41.7403 80.665 37.7889 81.4885 37.8219 82.3064C37.8549 83.1243 41.8598 83.6269 46.7671 83.4289Z" fill="white"/>
<path fill-rule="evenodd" clip-rule="evenodd" d="M24.3593 61.5166C25.4797 63.6617 27.2893 66.7446 29.913 69.7977C34.7689 74.336 42.0075 75.9524 48.1284 73.0349C55.0663 69.7291 57.6927 63.4116 56.8929 56.94L56.89 56.9085C57.1879 55.6432 57.5226 55.0674 57.8658 54.5906C57.9679 54.4483 58.0899 54.292 58.2288 54.115C58.6855 53.5366 59.3123 52.7413 59.9222 51.5225C60.2966 50.7731 60.7447 49.4823 60.7589 48.2104C60.7674 47.5657 60.6653 46.8027 60.2625 46.1104C59.8342 45.3695 59.1365 44.8354 58.2146 44.6051C56.8588 44.2664 55.6987 44.8059 54.9528 45.5507C54.6833 45.8222 54.5018 46.101 54.3628 46.4025C54.2976 46.6725 54.2125 46.944 54.1047 47.2146C53.6339 48.4183 52.7602 49.6763 51.5917 50.9232C49.2459 53.4201 45.6012 55.9896 41.1424 58.114C36.6835 60.2388 32.2928 61.4933 28.7785 61.7846C27.1078 61.9233 25.596 61.8467 24.3593 61.5166ZM23.3354 59.4485C21.9257 56.2715 27.0936 49.9866 35.2852 46.0828C43.1874 42.3178 50.8911 41.8305 52.9815 44.8638C53.0751 45.3664 53.0042 45.9671 52.7262 46.674C52.3461 47.6423 51.6058 48.7431 50.511 49.9089C48.3241 52.237 44.8467 54.7078 40.507 56.7761C36.1673 58.8441 31.9496 60.0345 28.6565 60.3077C27.0086 60.4444 25.63 60.3474 24.5976 60.0445C24.07 59.889 23.6531 59.6865 23.3354 59.4485ZM55.9767 52.1766L55.9285 52.2376C55.7697 51.6711 55.5995 51.1265 55.4236 50.6063C55.5144 50.4373 55.6052 50.2532 55.6988 50.0606C55.781 49.8842 55.8689 49.697 55.954 49.5087C56.059 49.2809 56.1668 49.0514 56.2689 48.8381C56.4589 48.4436 56.6546 48.0743 56.8532 47.802C56.9524 47.6658 57.0574 47.5481 57.168 47.463C57.2786 47.3779 57.4063 47.3187 57.5452 47.3187C57.809 47.3187 58.0416 47.5096 58.1863 47.7787C58.3338 48.053 58.4075 48.4317 58.3565 48.8733C58.26 49.7117 57.3807 51.0763 55.9767 52.1766Z" fill="#FF1E47"/>
<path fill-rule="evenodd" clip-rule="evenodd" d="M22.2915 40.0287C20.7287 41.4957 21.1201 43.3422 21.5087 44.0822C20.5727 43.6434 19.492 42.4017 19.1772 41.6599C18.8708 41.1485 18.4057 39.7533 18.9985 38.2636C19.5941 36.7739 20.8677 36.7201 21.4293 36.8795C22.4277 37.1614 23.8544 38.5617 22.2915 40.0287ZM34.7235 46.1247C39.049 44.0626 43.3377 42.9678 46.7073 42.7888C48.395 42.6992 49.816 42.841 50.8825 43.1794C51.9546 43.5192 52.5815 44.0261 52.8566 44.6038C53.1374 45.1932 53.1431 45.961 52.7659 46.9266C52.3858 47.8946 51.6426 48.9954 50.5506 50.1612C48.3638 52.4893 44.8835 54.9601 40.5438 57.0284C36.2041 59.0964 31.9892 60.2871 28.6962 60.56C27.0454 60.6967 25.6697 60.5997 24.6373 60.2968C23.6048 59.9939 23.0007 59.5131 22.7284 58.9376C22.4249 58.3017 22.422 57.436 22.8503 56.3417C23.2729 55.2505 24.0955 54.0091 25.301 52.7134L25.7321 52.2528L25.3464 51.755C24.5039 50.6672 24.0444 49.6172 23.8799 49.0133L23.8686 48.9634L23.8459 48.9163C23.4942 48.0901 23.2106 46.6804 23.1283 45.1433C23.0858 44.3999 23.0943 43.6528 23.1567 42.9536C24.5692 45.0554 27.2921 47.354 31.6375 47.1328C31.9438 47.1169 32.2275 47.1203 32.4913 47.1399L32.7068 47.1557L32.8969 47.0522C33.4868 46.7337 34.0938 46.424 34.7235 46.1247ZM17.3846 47.8597C17.9973 47.8597 18.4964 47.3619 18.4964 46.7482C18.4964 46.1344 17.9973 45.6366 17.3846 45.6366C16.7691 45.6366 16.2727 46.1344 16.2727 46.7482C16.2727 47.3619 16.7691 47.8597 17.3846 47.8597Z" fill="white"/>
<path d="M63.6406 74.008C63.6406 73.8937 63.7314 73.8492 63.8222 73.6671C63.981 73.3261 64.0718 72.9197 64.0718 72.511C64.0718 72.2611 64.0491 72.058 64.0491 71.9434L64.0264 68.7229C64.0264 67.7699 64.5029 67.1348 65.3169 67.0458C65.385 67.0225 65.4077 67.0225 65.5892 67.0225C65.8161 67.0225 65.9296 67.067 65.9296 67.1813C65.9296 67.2279 65.9069 67.2724 65.8615 67.3402C65.6573 67.6133 65.5892 67.84 65.5892 68.2929C65.5892 68.475 65.6119 68.7017 65.6119 68.9728L65.68 72.2378C65.7027 73.4617 65.0673 74.1649 63.9129 74.1649C63.7285 74.1649 63.6406 74.1181 63.6406 74.006V74.008ZM70.5785 74.008C70.5785 73.917 70.6465 73.8492 70.7146 73.6903C70.9188 73.2373 71.0323 72.6252 71.0323 72.0134C71.0323 71.1747 70.7146 68.3185 70.7146 67.3422C70.7146 66.095 71.0323 65.0532 71.5996 64.4181H64.8631C64.1625 64.4181 63.7768 63.8293 63.7768 62.7855C63.7768 62.0823 63.8675 61.5383 64.0944 61.0385C64.2533 60.6976 64.3214 60.6298 64.4802 60.6298C64.7298 60.6298 64.7298 60.903 64.7723 61.1063C64.8631 61.4473 65.09 61.5829 65.5438 61.5829H71.801C72.7313 61.5829 72.6405 62.1501 72.6405 62.4678V64.3949C72.1867 64.3949 71.9371 64.7123 71.9371 65.3011C71.9371 66.2538 72.6405 70.743 72.6405 71.9224C72.6405 73.3051 71.9598 74.1668 70.8252 74.1668C70.6664 74.1668 70.5756 74.1203 70.5756 74.008H70.5785Z" fill="white"/>
<path d="M73.846 71.6961C73.9594 71.1518 73.9594 71.1963 74.4132 71.1963H79.7173C80.8065 71.1963 81.5326 69.8135 81.5326 67.7489C81.5326 65.3689 81.0334 64.4161 79.7655 64.4161H76.4328C75.9562 64.4161 75.3663 65.3014 75.3663 66.0255C75.3663 66.2286 75.4343 66.2987 75.6839 66.2987C75.8428 66.2987 76.0697 66.2754 76.5462 66.2754C77.4539 66.2754 77.9531 66.7516 77.9531 67.6136C77.9531 68.1576 77.885 68.8143 77.7715 69.3583H76.9774C77.0454 68.5876 76.6341 68.1344 75.8201 68.1344C75.1393 68.1344 74.7564 68.5644 74.7564 69.335H73.9623C73.8034 69.335 73.6673 69.1995 73.6673 69.0406C73.6673 66.8407 74.1438 65.458 75.2755 64.4161H75.006C74.3026 64.4161 73.9169 63.9396 73.9169 63.0334C73.9112 62.0129 74.4331 60.6534 74.8189 60.6534C74.9777 60.6534 75.0684 60.7889 75.0457 61.0156C75.0231 61.3775 75.2273 61.5829 75.613 61.5829H80.4661C80.9199 61.5829 81.5298 61.5386 81.9836 62.9656C82.4374 64.0542 82.6643 65.6866 82.6643 67.6814C82.6643 69.8348 82.2105 72.0792 81.4163 73.985H73.3212L73.8431 71.6961H73.846Z" fill="white"/>
<path d="M86.4906 72.8049C86.4906 72.0342 86.9444 71.3989 88.2804 70.2873C88.9384 69.743 89.6872 69.199 90.2545 68.7224C91.1621 67.975 91.5025 67.2487 91.5025 66.0925C91.5025 65.0487 90.9806 64.4156 90.073 64.4156H84.6072C83.9946 64.4156 83.7223 63.9624 83.7223 62.9186C83.7223 61.4681 83.9265 60.6506 84.2896 60.6506C84.6299 60.6506 84.6072 60.7862 84.7661 61.3092C84.8568 61.6269 85.1291 61.5804 85.3561 61.5804H90.2091C92.7704 61.5804 93.2469 62.1922 93.2469 65.4362C93.2469 67.2509 92.8839 68.0893 91.5905 69.1777C90.9551 69.722 90.0928 70.3105 89.4149 70.8336C88.5527 71.4899 88.1669 71.9452 88.1669 72.3074C88.1669 72.625 88.4846 72.8517 88.4846 73.2814C88.4846 73.7579 88.0761 74.0756 87.4862 74.0756C86.9671 74.0756 86.4906 73.4867 86.4906 72.8049ZM84.1307 67.363C84.1307 66.5691 84.7661 65.9337 85.5149 66.0037C85.5603 66.7511 85.6482 73.4635 85.6482 76.1399C85.6482 77.2728 85.6482 77.3193 85.6028 77.5692C85.5121 78.3634 84.7405 79.1108 84.0853 79.043C84.0853 75.778 84.1279 68.5213 84.1279 67.3652L84.1307 67.363Z" fill="white"/>
<path d="M100.395 61.5824H97.1697C97.1442 61.5824 97.1186 61.5867 97.0959 61.5867H93.8908C93.854 61.9273 93.8284 62.2578 93.8426 62.5584C93.9107 63.9877 94.2709 64.4177 95.4083 64.4177H99.7849C100.803 64.4177 101.098 64.8474 101.098 66.3444C101.098 67.1829 100.599 67.9771 99.6005 68.7477L98.1284 69.9038C96.5854 71.1045 96.3358 71.492 96.3358 72.6926C96.3358 73.6666 96.7896 74.302 97.4704 74.302C98.0575 74.302 98.534 73.8487 98.534 73.2811C98.534 72.7139 98.1483 72.5338 98.1483 71.8754C98.1483 71.5577 98.2844 71.2866 98.5794 70.9689C99.0985 70.4249 100.051 69.8806 101.231 68.9066C101.935 68.318 102.389 67.5238 102.502 66.7299C102.661 65.6416 102.774 64.644 102.774 64.1678C102.774 62.4208 102.006 61.5824 100.395 61.5824Z" fill="white"/>
<path d="M96.6224 58.1651C95.0255 58.1333 94.2738 59.3212 94.098 59.9205C93.8257 59.1984 93.8938 57.9745 94.1122 57.4154C94.2171 56.9834 94.6936 55.9967 95.7856 55.5119C96.8748 55.0269 97.5839 55.66 97.8023 56.0392C98.1852 56.7083 98.2193 58.1969 96.6224 58.1651Z" fill="white"/>
<path d="M95.0539 57.2078C95.3942 57.2078 95.3942 56.6785 95.0539 56.6785C94.7106 56.6785 94.7106 57.2078 95.0539 57.2078Z" fill="#524E49"/>
<path d="M72.6774 58.5505C72.6774 58.4361 72.7681 58.3916 72.8589 58.2095C73.0177 57.8686 73.1113 57.4621 73.1113 57.0534C73.1113 56.8035 73.0858 56.6001 73.0858 56.4858L73.0631 53.2654C73.0631 52.3124 73.5396 51.6773 74.3565 51.5882C74.4218 51.565 74.4473 51.565 74.6288 51.565C74.8557 51.565 74.9692 51.6095 74.9692 51.7238C74.9692 51.7703 74.9465 51.8148 74.9011 51.8826C74.6969 52.1558 74.6317 52.3824 74.6317 52.8354C74.6317 53.0175 74.6543 53.2441 74.6543 53.515L74.7224 56.7802C74.7451 58.0042 74.1097 58.707 72.9525 58.707C72.771 58.707 72.683 58.6605 72.683 58.5485L72.6774 58.5505ZM79.6152 58.5505C79.6152 58.4594 79.6833 58.3916 79.7514 58.2328C79.9528 57.7798 80.069 57.1677 80.069 56.5559C80.069 55.7172 79.7514 52.8609 79.7514 51.8846C79.7514 50.6374 80.069 49.5956 80.6363 48.9606H73.9027C73.1993 48.9606 72.8135 48.3717 72.8135 47.3279C72.8135 46.6248 72.9043 46.0808 73.1312 45.581C73.29 45.2401 73.3581 45.1723 73.5169 45.1723C73.7665 45.1723 73.7665 45.4454 73.8119 45.6488C73.9027 45.9897 74.1296 46.1253 74.5806 46.1253H80.8405C81.7709 46.1253 81.6801 46.6926 81.6801 47.0103V48.937C81.2263 48.937 80.9767 49.2547 80.9767 49.8435C80.9767 50.7963 81.6801 55.2852 81.6801 56.4648C81.6801 57.8476 80.9994 58.7093 79.8648 58.7093C79.706 58.7093 79.6152 58.6628 79.6152 58.5505Z" fill="white"/>
<path d="M83.2062 51.544C83.2062 50.8411 83.4104 50.0934 83.9096 49.0942C83.8415 49.1174 83.7961 49.1174 83.728 49.1174C83.1154 49.1174 82.6843 48.37 82.6843 47.3027C82.6843 46.2356 83.0927 45.1958 83.4784 45.1958C83.7961 45.1958 83.7508 45.4902 83.7508 45.7634C83.7508 45.99 83.8869 46.1253 84.1365 46.1253H85.3165C85.9518 46.1253 86.4255 46.7374 86.4255 47.5546C86.4255 47.828 86.2922 48.5076 86.1532 48.9141C86.1106 49.0729 86.0397 49.2085 85.9944 49.2085C85.9036 49.2085 85.6993 48.9818 85.359 48.9818C84.7917 48.9818 84.3634 50.0024 84.3634 51.3406C84.3634 52.2026 84.8144 53.9705 85.4951 55.8298L88.1018 49.5494C88.1699 49.3906 88.2152 49.2782 88.2152 49.1872C88.2152 49.0729 88.1472 49.0284 88.0337 49.0284C87.3303 49.0284 86.902 48.4165 86.902 47.4403C86.902 46.3287 87.353 45.1958 87.8068 45.1958C87.9883 45.1958 88.0564 45.2869 88.0564 45.5135C88.0564 45.899 88.1472 46.0578 88.3741 46.0811L89.4406 46.2164C90.2574 46.3309 90.6631 46.8052 90.6631 47.6459C90.6631 48.2345 90.3454 49.3925 90.1865 49.3925C90.0532 49.3925 89.9596 49.1895 89.6873 49.1895C89.3696 49.1895 89.191 49.3483 88.9839 49.778C88.4648 50.8431 87.5118 53.1786 86.5134 55.7407H88.7825C89.3271 55.7407 89.8689 55.4233 90.1639 54.9468C90.5042 54.4025 90.9127 53.6551 92.3847 50.9554C92.7478 50.2755 93.4058 50.0702 93.4058 49.6637C93.4058 49.3015 93.0882 49.0961 92.5209 49.0961C91.5905 49.0961 91.2502 48.5964 91.2502 47.305C91.2502 46.5108 91.8175 45.1958 92.1579 45.1958C92.45 45.1958 92.4301 45.4457 92.45 45.7169C92.4755 45.9432 92.5663 46.0342 92.9038 46.102L93.6753 46.2376C94.4922 46.3965 94.9659 47.0318 94.9659 47.8935C94.9659 48.6432 94.8297 49.1639 94.3561 50.0702C94.0384 50.659 93.698 51.182 93.4257 51.6796C92.7223 52.95 92.5407 53.4475 90.751 57.4156C90.5241 57.9154 90.2745 58.5275 89.2534 58.5275H84.2443C83.6089 54.786 83.2005 52.0205 83.2005 51.544H83.2062Z" fill="white"/>
<path d="M97.8023 52.6089C97.8023 52.1789 98.3469 51.929 98.7554 51.385C99.0504 50.9995 99.1837 50.5908 99.1837 50.0933C99.1837 49.3669 98.8915 48.9604 98.3242 48.9604H96.7359C95.9417 48.9604 95.5559 48.4839 95.5559 47.4866C95.5559 46.286 95.8736 45.1744 96.2111 45.1744C96.4153 45.1744 96.5061 45.31 96.5515 45.6509C96.5969 46.0361 96.7359 46.1271 97.1868 46.1271H98.9568C99.8843 46.1271 100.474 47.0802 100.474 48.5772C100.474 50.0743 99.7027 51.7512 98.5908 52.863C98.5001 52.9541 98.3639 53.0216 98.2306 53.0216C98.0037 53.0216 97.7995 52.8395 97.7995 52.6131L97.8023 52.6089Z" fill="white"/>
<path d="M69.3505 52.6089C69.3505 52.1789 69.8951 51.929 70.3035 51.385C70.5985 50.9995 70.7318 50.5908 70.7318 50.0933C70.7318 49.3669 70.4397 48.9604 69.8724 48.9604H68.284C67.4898 48.9604 67.1041 48.4839 67.1041 47.4866C67.1041 46.286 67.4217 45.1744 67.7593 45.1744C67.9635 45.1744 68.0543 45.31 68.0996 45.6509C68.145 46.0361 68.284 46.1271 68.735 46.1271H70.5049C71.4324 46.1271 72.0224 47.0802 72.0224 48.5772C72.0224 50.0743 71.2509 51.7512 70.139 52.863C70.0482 52.9541 69.9121 53.0216 69.7788 53.0216C69.5519 53.0216 69.3477 52.8395 69.3477 52.6131L69.3505 52.6089Z" fill="white"/>
<path d="M101.271 57.7563C101.271 54.3767 101.975 51.7235 103.265 50.2287C103.469 50.0021 103.606 49.729 103.606 49.5489C103.606 49.2079 103.401 49.1191 102.584 49.1191C101.68 49.1191 101.044 48.4838 101.044 47.6008C101.044 47.2153 101.18 46.4892 101.405 45.695C101.541 45.2866 101.589 45.2188 101.79 45.2188C102.085 45.2188 102.063 45.4687 102.153 45.7396C102.221 45.9429 102.221 46.125 102.607 46.125H103.628C104.264 46.125 104.831 46.7368 104.831 47.4167V48.9348C107.392 47.5288 106.371 45.8519 107.097 45.8519C107.982 45.8519 109.593 46.9847 110.229 48.0731C110.796 49.1169 111.045 50.2055 111.045 51.7913C111.045 53.3774 110.75 55.9628 110.274 58.5249H103.79L104.335 56.2805C104.471 55.7129 104.471 55.7362 105.038 55.7362H109.049C109.82 55.7362 109.778 55.5095 109.888 54.942C110.002 54.4445 110.047 53.9214 110.047 53.4239C110.047 50.9739 108.825 49.3648 106.941 49.3648C104.153 49.388 102.315 52.7653 102.315 57.8218C102.315 58.0717 102.341 58.3216 102.341 58.5695H101.297C101.297 58.2983 101.271 58.0252 101.271 57.754V57.7563Z" fill="white"/>
<path d="M68.5957 58.98C69.0641 58.98 69.4439 58.6003 69.4439 58.1318C69.4439 57.6634 69.0641 57.2836 68.5957 57.2836C68.1272 57.2836 67.7475 57.6634 67.7475 58.1318C67.7475 58.6003 68.1272 58.98 68.5957 58.98Z" fill="white"/>
<path d="M75.6897 76.739C76.1581 76.739 76.5379 76.3592 76.5379 75.8908C76.5379 75.4223 76.1581 75.0426 75.6897 75.0426C75.2212 75.0426 74.8415 75.4223 74.8415 75.8908C74.8415 76.3592 75.2212 76.739 75.6897 76.739Z" fill="white"/>
<path d="M77.105 78.4359C77.5734 78.4359 77.9532 78.0561 77.9532 77.5876C77.9532 77.1192 77.5734 76.7394 77.105 76.7394C76.6365 76.7394 76.2568 77.1192 76.2568 77.5876C76.2568 78.0561 76.6365 78.4359 77.105 78.4359Z" fill="white"/>
<path d="M78.5175 76.739C78.9859 76.739 79.3657 76.3592 79.3657 75.8908C79.3657 75.4223 78.9859 75.0426 78.5175 75.0426C78.049 75.0426 77.6693 75.4223 77.6693 75.8908C77.6693 76.3592 78.049 76.739 78.5175 76.739Z" fill="white"/>
</g>
<defs>
<filter id="filter0_d_2_284" x="0" y="0" width="128" height="128" filterUnits="userSpaceOnUse" color-interpolation-filters="sRGB">
<feFlood flood-opacity="0" result="BackgroundImageFix"/>
<feColorMatrix in="SourceAlpha" type="matrix" values="0 0 0 0 0 0 0 0 0 0 0 0 0 0 0 0 0 0 127 0" result="hardAlpha"/>
<feOffset dy="4"/>
<feGaussianBlur stdDeviation="2"/>
<feComposite in2="hardAlpha" operator="out"/>
<feColorMatrix type="matrix" values="0 0 0 0 0 0 0 0 0 0 0 0 0 0 0 0 0 0 0.25 0"/>
<feBlend mode="normal" in2="BackgroundImageFix" result="effect1_dropShadow_2_284"/>
<feBlend mode="normal" in="SourceGraphic" in2="effect1_dropShadow_2_284" result="shape"/>
</filter>
</defs>
</svg>
