<?xml version="1.0" encoding="UTF-8"?>
<svg data-bbox="0 0 456.015 224.483" xmlns="http://www.w3.org/2000/svg" viewBox="0 0 457 226" height="226" width="457" data-type="color">
    <g>
        <path fill="#0F434F" d="M146.728 224.276c23.612-.952 42.625-4.915 42.466-8.85s-19.429-6.354-43.041-5.401c-23.612.952-42.625 4.914-42.466 8.85s19.429 6.353 43.041 5.401" opacity=".2" data-color="1"/>
        <path fill="#FF1E47" d="M38.91 118.84c5.391 10.322 14.098 25.155 26.722 39.846 23.366 21.836 58.195 29.614 87.647 15.576 33.382-15.906 46.02-46.304 42.171-77.443l-.013-.151c1.433-6.089 3.043-8.86 4.695-11.153a68 68 0 0 1 1.747-2.29c2.197-2.782 5.213-6.609 8.147-12.473 1.802-3.606 3.958-9.817 4.026-15.937.041-3.102-.45-6.773-2.388-10.105-2.061-3.564-5.418-6.134-9.854-7.242-6.523-1.63-12.105.966-15.695 4.55a13.9 13.9 0 0 0-2.838 4.098 29 29 0 0 1-1.242 3.907c-2.266 5.793-6.469 11.845-12.092 17.845-11.287 12.014-28.824 24.378-50.279 34.6-21.454 10.223-42.581 16.26-59.49 17.662-8.04.667-15.313.298-21.264-1.29m-4.927-9.951C27.2 93.602 52.067 63.362 91.482 44.578c38.022-18.116 75.09-20.46 85.148-5.866.451 2.419.109 5.31-1.228 8.71-1.829 4.66-5.391 9.956-10.659 15.566-10.523 11.202-27.255 23.09-48.136 33.042-20.881 9.951-41.175 15.679-57.02 16.993-7.93.658-14.563.191-19.53-1.266-2.539-.748-4.545-1.723-6.074-2.868m157.059-34.99-.232.293a156 156 0 0 0-2.429-7.848c.437-.814.873-1.7 1.324-2.626.396-.85.819-1.75 1.228-2.656v-.002a249 249 0 0 1 1.515-3.224c.914-1.899 1.856-3.676 2.811-4.986.478-.655.983-1.221 1.515-1.631.533-.41 1.147-.695 1.815-.695 1.27 0 2.389.919 3.085 2.214.71 1.32 1.064 3.142.819 5.267-.464 4.034-4.695 10.6-11.451 15.894" clip-rule="evenodd" fill-rule="evenodd" data-color="2"/>
        <path fill="#DBD5C7" d="M28.96 15.448c-7.52 7.059-5.636 15.943-3.766 19.504-4.504-2.111-9.704-8.086-11.219-11.655-1.474-2.46-3.712-9.174-.86-16.342C15.983-.213 22.11-.472 24.813.295 29.616 1.65 36.48 8.389 28.96 15.448M88.78 44.78c20.813-9.922 41.448-15.19 57.662-16.051 8.12-.432 14.958.25 20.089 1.879 5.159 1.635 8.175 4.074 9.499 6.854 1.351 2.836 1.379 6.53-.436 11.176-1.829 4.658-5.405 9.955-10.659 15.564-10.523 11.202-27.269 23.09-48.15 33.043-20.881 9.95-41.162 15.68-57.007 16.993-7.943.657-14.562.191-19.53-1.267s-7.874-3.771-9.185-6.54c-1.46-3.06-1.474-7.225.587-12.49 2.034-5.25 5.992-11.224 11.792-17.459l2.074-2.216-1.856-2.395c-4.053-5.234-6.264-10.287-7.056-13.192l-.054-.24-.11-.227c-1.692-3.976-3.056-10.759-3.452-18.154-.205-3.577-.164-7.172.136-10.536C39.92 39.635 53.022 50.695 73.93 49.63a33 33 0 0 1 4.108.034l1.037.077.915-.498a191 191 0 0 1 8.789-4.463M5.35 53.128a5.354 5.354 0 0 0 5.35-5.348 5.354 5.354 0 0 0-5.35-5.349A5.345 5.345 0 0 0 0 47.78a5.345 5.345 0 0 0 5.35 5.348" clip-rule="evenodd" fill-rule="evenodd" data-color="3"/>
        <path fill="#0F434F" d="M227.918 178.944c0-.55.437-.764.873-1.64.765-1.64 1.201-3.596 1.201-5.563 0-1.202-.109-2.179-.109-2.731l-.109-15.496c0-4.585 2.293-7.641 6.21-8.069.327-.112.437-.112 1.31-.112 1.092 0 1.638.214 1.638.764 0 .224-.11.438-.328.764-.983 1.314-1.31 2.405-1.31 4.584 0 .877.109 1.967.109 3.272l.328 15.71c.109 5.889-2.948 9.272-8.503 9.272-.887 0-1.31-.225-1.31-.764zm33.382 0c0-.438.328-.764.655-1.528.983-2.18 1.529-5.125 1.529-8.069 0-4.035-1.529-17.779-1.529-22.476 0-6.001 1.529-11.014 4.259-14.07H233.8c-3.371 0-5.227-2.833-5.227-7.855 0-3.384.437-6.001 1.529-8.406.764-1.641 1.091-1.967 1.856-1.967 1.201 0 1.201 1.315 1.405 2.293.437 1.641 1.529 2.293 3.713 2.293h30.107c4.476 0 4.039 2.729 4.039 4.258v9.272c-2.183 0-3.384 1.528-3.384 4.361 0 4.584 3.384 26.184 3.384 31.859 0 6.654-3.275 10.8-8.734 10.8-.764 0-1.201-.224-1.201-.765z" data-color="1"/>
        <path fill="#0F434F" d="M277.023 167.82c.546-2.619.546-2.405 2.729-2.405h25.522c5.241 0 8.734-6.653 8.734-16.587 0-11.452-2.402-16.036-8.502-16.036H289.47c-2.293 0-5.132 4.259-5.132 7.743 0 .978.328 1.315 1.529 1.315.764 0 1.856-.112 4.149-.112 4.367 0 6.769 2.291 6.769 6.439 0 2.618-.328 5.777-.874 8.395h-3.821c.328-3.708-1.651-5.889-5.568-5.889-3.276 0-5.118 2.069-5.118 5.777h-3.822a1.443 1.443 0 0 1-1.419-1.417c0-10.585 2.293-17.238 7.738-22.251h-1.296c-3.385 0-5.241-2.293-5.241-6.654-.027-4.91 2.484-11.451 4.34-11.451.764 0 1.201.652 1.092 1.742-.109 1.742.873 2.73 2.729 2.73h23.352c2.183 0 5.118-.213 7.301 6.653 2.184 5.238 3.276 13.092 3.276 22.691 0 10.361-2.184 21.161-6.005 30.331h-38.951l2.511-11.014z" data-color="1"/>
        <path fill="#0F434F" d="M337.865 173.157c0-3.708 2.184-6.765 8.612-12.114 3.166-2.619 6.769-5.236 9.499-7.529 4.367-3.596 6.005-7.092 6.005-12.654 0-5.023-2.512-8.069-6.879-8.069h-26.299c-2.948 0-4.258-2.181-4.258-7.203 0-6.98.983-10.913 2.729-10.913 1.638 0 1.529.652 2.293 3.169.437 1.528 1.747 1.305 2.839 1.305h23.351c12.324 0 14.617 2.943 14.617 18.552 0 8.732-1.747 12.767-7.97 18.003-3.057 2.619-7.206 5.451-10.468 7.968-4.149 3.158-6.005 5.348-6.005 7.091 0 1.529 1.528 2.619 1.528 4.687 0 2.293-1.965 3.821-4.804 3.821-2.497 0-4.79-2.833-4.79-6.114m-11.355-26.185c0-3.82 3.057-6.877 6.66-6.54.219 3.596.642 35.894.642 48.772 0 5.451 0 5.675-.219 6.877-.436 3.822-4.149 7.418-7.301 7.092 0-15.71.204-50.627.204-56.19z" data-color="1"/>
        <path fill="#0F434F" d="M404.767 119.156H389.25c-.123 0-.246.021-.355.021h-15.422c-.178 1.639-.3 3.229-.232 4.676.327 6.877 2.061 8.946 7.533 8.946h21.059c4.9 0 6.319 2.067 6.319 9.271 0 4.034-2.402 7.855-7.206 11.563l-7.083 5.563c-7.425 5.777-8.626 7.642-8.626 13.419 0 4.686 2.184 7.743 5.459 7.743 2.825 0 5.118-2.18 5.118-4.911s-1.856-3.597-1.856-6.764c0-1.529.655-2.834 2.075-4.362 2.497-2.618 7.083-5.237 12.76-9.923 3.385-2.832 5.569-6.654 6.115-10.474.764-5.236 1.31-10.036 1.31-12.328 0-8.405-3.699-12.44-11.451-12.44" data-color="1"/>
        <path fill="#0F434F" d="M386.615 102.715c-7.683-.153-11.3 5.563-12.146 8.447-1.31-3.475-.983-9.364.068-12.054.505-2.079 2.798-6.827 8.052-9.16 5.241-2.333 8.653.713 9.704 2.538 1.842 3.22 2.006 10.382-5.678 10.229" data-color="1"/>
        <path fill="#0F434F" d="M383.134 95.084c.137-.152.273-.285.437-.427-.245.174.178-.163 0 0 .082-.052.15-.102.232-.143.082-.05.164-.102.26-.142.041-.02.095-.041.136-.072.123-.05.095-.041-.096.04.164-.02.355-.132.506-.173.204-.05.395-.1.586-.132.055-.01.109-.02.178-.03-.191.02-.219.03-.082.01l.368-.03c.437-.03.887-.03 1.324-.021.669.02 1.31-.6 1.283-1.273-.041-.714-.559-1.253-1.283-1.274-2.006-.061-4.258.254-5.65 1.874-.437.51-.532 1.314 0 1.804.478.438 1.337.54 1.801 0z" data-color="1"/>
        <path fill="#0F434F" d="M271.399 104.568c0-.55.437-.765.874-1.641a13.4 13.4 0 0 0 1.215-5.563c0-1.202-.123-2.18-.123-2.73l-.11-15.496c0-4.586 2.293-7.642 6.224-8.07.314-.112.437-.112 1.31-.112 1.092 0 1.638.214 1.638.764 0 .224-.109.438-.328.764-.982 1.315-1.296 2.405-1.296 4.585 0 .876.109 1.966.109 3.27l.327 15.71c.11 5.89-2.947 9.272-8.516 9.272-.873 0-1.296-.224-1.296-.763zm33.383 0c0-.439.328-.765.655-1.529.969-2.18 1.529-5.125 1.529-8.069 0-4.035-1.529-17.779-1.529-22.476 0-6.001 1.529-11.014 4.258-14.07h-32.4c-3.384 0-5.241-2.833-5.241-7.855 0-3.384.437-6.001 1.529-8.406.764-1.64 1.092-1.967 1.856-1.967 1.201 0 1.201 1.315 1.42 2.293.436 1.64 1.528 2.293 3.698 2.293h30.121c4.476 0 4.04 2.73 4.04 4.258v9.271c-2.184 0-3.385 1.529-3.385 4.362 0 4.584 3.385 26.183 3.385 31.86 0 6.653-3.276 10.799-8.735 10.799-.764 0-1.201-.224-1.201-.764" data-color="1"/>
        <path fill="#0F434F" d="M322.06 70.856c0-3.382.983-6.98 3.385-11.788-.328.112-.546.112-.874.112-2.948 0-5.022-3.596-5.022-8.732 0-5.134 1.965-10.138 3.821-10.138 1.529 0 1.31 1.417 1.31 2.731 0 1.09.655 1.742 1.856 1.742h5.678c3.057 0 5.336 2.945 5.336 6.877 0 1.316-.641 4.586-1.31 6.542-.205.764-.546 1.416-.764 1.416-.437 0-1.42-1.09-3.057-1.09-2.73 0-4.791 4.91-4.791 11.35 0 4.147 2.17 12.653 5.446 21.6l12.542-30.22c.328-.764.546-1.304.546-1.742 0-.55-.328-.765-.873-.765-3.385 0-5.446-2.943-5.446-7.641 0-5.349 2.17-10.8 4.354-10.8.873 0 1.201.439 1.201 1.53 0 1.854.436 2.618 1.528 2.73l5.132.651c3.93.551 5.882 2.833 5.882 6.879 0 2.831-1.529 8.404-2.293 8.404-.641 0-1.092-.977-2.402-.977-1.528 0-2.388.764-3.384 2.831-2.498 5.125-7.084 16.363-11.888 28.691h10.919c2.62 0 5.227-1.527 6.646-3.82 1.638-2.62 3.603-6.215 10.686-19.205 1.747-3.272 4.913-4.26 4.913-6.215 0-1.743-1.528-2.731-4.258-2.731-4.476 0-6.114-2.405-6.114-8.619 0-3.821 2.73-10.149 4.368-10.149 1.405 0 1.31 1.203 1.405 2.508.123 1.089.56 1.527 2.184 1.853l3.712.652c3.931.765 6.21 3.822 6.21 7.968 0 3.607-.655 6.113-2.934 10.473-1.529 2.834-3.167 5.35-4.477 7.744-3.385 6.113-4.258 8.507-12.87 27.6-1.092 2.405-2.293 5.35-7.206 5.35h-24.102c-3.057-18.003-5.022-31.31-5.022-33.602z" data-color="1"/>
        <path fill="#0F434F" d="M392.292 75.978c0-2.069 2.621-3.271 4.586-5.889 1.42-1.854 2.061-3.821 2.061-6.215 0-3.495-1.406-5.45-4.135-5.45h-7.643c-3.821 0-5.678-2.294-5.678-7.092 0-5.777 1.529-11.126 3.153-11.126.983 0 1.419.652 1.638 2.293.218 1.853.887 2.291 3.057 2.291h8.516c4.463 0 7.302 4.586 7.302 11.79s-3.713 15.271-9.063 20.621c-.436.438-1.091.763-1.733.763-1.092 0-2.074-.876-2.074-1.965z" data-color="1"/>
        <path fill="#0F434F" d="M408.984 100.747c0-16.261 3.385-29.028 9.595-36.22.982-1.09 1.638-2.405 1.638-3.271 0-1.64-.983-2.068-4.914-2.068-4.353 0-7.41-3.057-7.41-7.306 0-1.854.655-5.348 1.733-9.17.655-1.965.887-2.291 1.856-2.291 1.419 0 1.31 1.202 1.747 2.506.327.978.327 1.854 2.184 1.854h4.913c3.057 0 5.786 2.944 5.786 6.216V58.3c12.324-6.765 7.411-14.834 10.905-14.834 4.258 0 12.01 5.451 15.067 10.688 2.73 5.022 3.931 10.26 3.931 17.89 0 7.632-1.42 20.072-3.712 32.4h-31.199l2.62-10.799c.655-2.73.655-2.619 3.385-2.619h19.298c3.712 0 3.507-1.09 4.039-3.822.546-2.393.765-4.91.765-7.304 0-11.789-5.882-19.531-14.945-19.531-13.415.112-22.259 16.362-22.259 40.692 0 1.203.123 2.405.123 3.598h-5.023c0-1.305-.123-2.619-.123-3.924z" data-color="1"/>
        <path fill="#0F434F" d="M285.895 192.085a4.08 4.08 0 1 0 0-8.162 4.08 4.08 0 0 0 0 8.162" data-color="1"/>
        <path fill="#0F434F" d="M292.705 200.249a4.083 4.083 0 1 0-.001-8.165 4.083 4.083 0 0 0 .001 8.165" data-color="1"/>
        <path fill="#0F434F" d="M299.501 192.085a4.08 4.08 0 1 0 0-8.162 4.08 4.08 0 0 0 0 8.162" data-color="1"/>
        <path fill="#0F434F" d="M254.269 71.976c0-1.795 2.418-2.838 4.231-5.11 1.31-1.608 1.902-3.314 1.902-5.39 0-3.033-1.298-4.73-3.816-4.73h-7.052c-3.526 0-5.239-1.989-5.239-6.151 0-5.012 1.41-9.652 2.909-9.652.907 0 1.31.566 1.511 1.99.202 1.607.819 1.987 2.821 1.987h7.858c4.118 0 6.737 3.978 6.737 10.227s-3.425 13.248-8.361 17.89c-.403.38-1.008.661-1.6.661-1.007 0-1.914-.76-1.914-1.705z" data-color="1"/>
        <path fill="#0F434F" d="M251.12 106.452a4.094 4.094 0 1 0 0-8.188 4.094 4.094 0 0 0 0 8.188" data-color="1"/>
    </g>
</svg>
